<?xml version="1.0" encoding="utf-8"?>
<!-- Generator: Adobe Illustrator 18.1.1, SVG Export Plug-In . SVG Version: 6.00 Build 0)  -->
<svg version="1.1"
	 id="svg2" xmlns:dc="http://purl.org/dc/elements/1.1/" xmlns:cc="http://creativecommons.org/ns#" xmlns:rdf="http://www.w3.org/1999/02/22-rdf-syntax-ns#" xmlns:svg="http://www.w3.org/2000/svg"
	 xmlns="http://www.w3.org/2000/svg" xmlns:xlink="http://www.w3.org/1999/xlink" x="0px" y="0px" viewBox="-123.9 225.7 49.7 50.4"
	 enable-background="new -123.9 225.7 49.7 50.4" xml:space="preserve">
<g id="layer1" transform="translate(-559.74952,-709.62564)">
	<g id="text2996" transform="matrix(0.93208065,0,0,0.9103974,44.122131,58.811339)">
		<g id="g3797">
			<path id="path3001" fill="#FFFFFF" d="M451.5,1006.2c0,2.3-0.4,4.1-1.1,5.2c-0.8,1.1-1.9,1.7-3.5,1.7c-1.6,0-2.8-0.6-3.6-1.7
				s-1.2-2.9-1.2-5.2v-19c0-2.3,0.4-4.1,1.2-5.2c0.8-1.1,2-1.7,3.6-1.7c1.6,0,2.8,0.6,3.5,1.7c0.8,1.1,1.1,2.8,1.1,5.2V1006.2z"/>
			<path id="path3001-4" fill="#89C623" d="M441.4,972.3c0-1.5,0.5-2.8,1.6-3.9c1.1-1.1,2.4-1.6,3.9-1.6c1.5,0,2.8,0.5,3.8,1.6
				c1.1,1.1,1.6,2.4,1.6,3.9c0,1.5-0.5,2.8-1.6,3.9c-1,1.1-2.3,1.6-3.8,1.6c-1.5,0-2.8-0.5-3.9-1.6
				C441.9,975.1,441.4,973.8,441.4,972.3z"/>
		</g>
	</g>
</g>
</svg>
