<?xml version="1.0" encoding="utf-8"?>
<!-- Generator: Adobe Illustrator 18.1.1, SVG Export Plug-In . SVG Version: 6.00 Build 0)  -->
<svg version="1.1" id="Capa_1" xmlns="http://www.w3.org/2000/svg" xmlns:xlink="http://www.w3.org/1999/xlink" x="0px" y="0px"
	 viewBox="-256 348.6 97.4 97.4" enable-background="new -256 348.6 97.4 97.4" xml:space="preserve">
<g>
	<path fill="#FFFFFF" d="M-226.9,370.9h39.2c3.7,0,6.8,2.8,6.8,6.8v39.2c0,4-3,6.8-6.8,6.8h-39.2c-3.7,0-6.8-2.8-6.8-6.8v-39.2
		C-233.7,373.7-230.6,370.9-226.9,370.9L-226.9,370.9z M-195.3,376.8c-1.3,0-2.4,1.1-2.4,2.4v5.7c0,1.3,1.1,2.4,2.4,2.4h6
		c1.3,0,2.4-1.1,2.4-2.4v-5.7c0-1.3-1.1-2.4-2.4-2.4H-195.3L-195.3,376.8z M-186.9,393.2h-4.6c0.4,1.4,0.7,3,0.7,4.5
		c0,8.8-7.3,15.9-16.4,15.9c-9.1,0-16.4-7.1-16.4-15.9c0-1.6,0.2-3.1,0.7-4.5h-4.8v22.3c0,1.2,0.9,2.1,2.1,2.1h36.7
		c1.2,0,2.1-0.9,2.1-2.1L-186.9,393.2L-186.9,393.2z M-207.3,386.9c-5.8,0-10.6,4.6-10.6,10.3s4.7,10.3,10.6,10.3
		c5.8,0,10.6-4.6,10.6-10.3S-201.4,386.9-207.3,386.9z"/>
</g>
</svg>
