<?xml version="1.0" encoding="utf-8"?>
<!-- Generator: Adobe Illustrator 18.1.1, SVG Export Plug-In . SVG Version: 6.00 Build 0)  -->
<svg version="1.1" id="Capa_1" xmlns="http://www.w3.org/2000/svg" xmlns:xlink="http://www.w3.org/1999/xlink" x="0px" y="0px"
	 viewBox="-34 35.9 430.1 430.1" enable-background="new -34 35.9 430.1 430.1" xml:space="preserve">
<g>
	<circle fill="#FFFFFF" cx="319.9" cy="121" r="35.9"/>
	<ellipse fill="#FFFFFF" cx="179" cy="298.9" rx="179" ry="127"/>
	<ellipse fill="#FFFFFF" cx="352.1" cy="230.4" rx="36.1" ry="33.5"/>
	<ellipse fill="#FFFFFF" cx="11" cy="230.4" rx="31" ry="33.5"/>
	<path id="reddit" d="M256.3,336.2c-2.2-1.4-4.8-2.3-7.4-2.3c-2.2,0-4.4,0.6-6.4,2l0,0c-19,11.3-41.4,17.6-63.5,17.6
		c-16.6,0-33.2-3.5-48.2-10.9l-0.1,0l-0.1,0c-2.3-0.9-4.8-2.9-7.6-4.8c-1.4-0.9-2.9-1.8-4.6-2.5c-1.6-0.7-3.4-1.2-5.4-1.2
		c-1.6,0-3.3,0.4-5,1.1c-0.1,0-0.2,0.1-0.3,0.1h0c-2.6,1-4.7,2.8-6,5c-1.4,2.2-2,4.8-2,7.4c0,2.3,0.6,4.7,1.7,6.8
		c1.1,2,2.8,3.8,4.9,4.9c21.4,14.5,46.7,21,72,21c22.8,0,45.8-5.3,66.3-14.9l0.1-0.1l0.1-0.1c2.7-1.6,6.3-3,9.7-5.1
		c1.7-1.1,3.3-2.3,4.7-3.9c1.4-1.6,2.5-3.6,3.2-5.9v0c0.3-1,0.4-2,0.4-3c0-1.9-0.5-3.7-1.2-5.3C260.4,339.7,258.5,337.7,256.3,336.2
		z M396,234L396,234c0.1,1,0.1,1.9,0.1,2.8c0,10.4-3.4,20.5-8.9,29c-5.2,8-12.4,14.6-20.7,19.2c0.5,4.2,0.8,8.3,0.8,12.5
		c0,22.5-7.8,44.6-21.3,62.3v0h0c-25,33.2-63.3,52.8-102,62.7h0l0,0c-20.6,5-41.9,7.6-63.2,7.6c-31.7,0-63.4-5.7-93-17.6l0,0h0
		C57,399.9,27.8,379.8,9.8,350.4c-9.6-15.7-14.9-34.1-14.9-52.7c0-4.2,0.3-8.4,0.8-12.5c-8.1-4.5-15.1-11-20.3-18.7
		c-5.5-8.3-9.1-17.9-9.5-28.2v0v0v-0.1c0-14.3,6.2-27.9,15.9-37.9c9.7-10,22.9-16.6,37.1-16.6c0.2,0,0.4,0,0.6,0
		c1.5-0.1,3-0.2,4.5-0.2c7.1,0,14.3,1.2,21,3.8l0,0l0,0c5.8,2.4,11.5,5.4,16.7,9.4c1.7-0.9,3.5-1.9,5.5-2.6
		c31.1-18.4,67.2-25.5,102.4-27.5c0.3-17.4,2.4-35.7,10.9-51.7c7.1-13.3,19.4-23.6,34-27.2l0.1,0l0.1,0c5.6-1.1,11.2-1.6,16.8-1.6
		c14.9,0,29.6,3.5,43.3,9c6.1-9.2,14.8-16.4,25-20.4l0.1-0.1l0.1,0c6-1.9,12.3-3,18.6-3c6.7,0,13.4,1.2,19.8,4v0c0,0,0,0,0,0
		c0,0,0.1,0,0.1,0c9.1,3.5,16.7,9.9,22.2,17.9c5.4,8,8.6,17.7,8.6,27.6c0,1.8-0.1,3.7-0.3,5.5l0,0c0,0,0,0.1,0,0.1
		c-1.1,12.8-7.6,24-16.7,32.1c-9.2,8-21.2,12.9-33.5,12.9c-2,0-4-0.1-5.9-0.4c-12.2-0.9-23.5-6.8-31.9-15.6
		c-8.4-8.8-13.8-20.5-13.8-33.1c0-0.6,0.1-1.2,0.1-1.8c-11.4-5.1-23.6-9.3-35.6-9.3c-1.7,0-3.5,0.1-5.2,0.3h0
		c-9,0.9-17.4,6.6-21.5,14.8v0v0c-6.2,12-7.4,26.1-7.6,40.1c34.6,2.3,69.5,10.6,100,28.1h0l0.4,0.3c0.6,0.3,1.7,0.9,2.6,1.4
		c2.1-1.7,4.3-3.5,6.9-5c9.3-6.2,20.2-9.2,31.2-9.2c4.9,0,9.7,0.6,14.5,1.8h0l0.2,0.1c0.1,0,0.1,0,0.2,0v0
		c11.2,2.8,21.3,9.3,28.9,17.9C389.9,211.1,395,222,396,234L396,234L396,234L396,234z M294,120.6c0,0.5,0,0.9,0.1,1.4v0v0.1
		c0.2,6,3.1,11.6,7.4,15.8c4.3,4.1,10.1,6.7,15.9,6.7h0.1h0.1c0.4,0,0.9,0,1.3,0c5.9,0,11.8-2.5,16.1-6.7c4.4-4.1,7.3-9.8,7.5-15.8
		l0,0v0c0-0.5,0.1-0.9,0.1-1.4c0-6.2-2.9-12.2-7.5-16.6c-4.6-4.4-10.7-7.1-16.7-7.1c-2,0-3.9,0.3-5.8,0.9l-0.1,0l-0.1,0
		c-5,1.3-9.7,4.4-13,8.4C296,110.4,294,115.4,294,120.6z M38.3,213.5c-4.6-2.2-9.4-3.7-14.2-3.7c-0.8,0-1.6,0-2.4,0.1h-0.1l-0.1,0
		c-6.8,0.2-13.7,3.1-18.8,7.9c-5.2,4.7-8.6,11.1-8.8,18.2v0.1l0,0.1c0,0.6-0.1,1.1-0.1,1.7c0,4.3,1.3,8.5,3.6,12.4
		c1.7,2.8,3.9,5.4,6.3,7.7C11.7,240.5,24.1,225.7,38.3,213.5z M340.1,298.5c0-15.5-5.6-31.1-14.6-43.6
		c-18.1-25.1-46.1-41.5-75.2-50.6l-0.2-0.1c-5.6-1.7-11.2-3.2-16.9-4.5c-17-3.9-34.5-5.8-51.9-5.8c-23.4,0-46.8,3.5-69.2,10.4
		c-29.1,9.2-57.2,25.5-75.2,50.7v0c-9.1,12.6-14.5,28.2-14.5,43.8c0,5.7,0.7,11.5,2.2,17l0,0c3.3,12.5,9.7,23.7,18,33.4
		c8.3,9.7,18.5,18.1,29.2,24.8c2.4,1.5,4.8,2.9,7.2,4.2c31.1,17.4,66.9,25,102.4,25c6,0,12.1-0.2,18-0.6
		c35.8-3,71.7-13.5,100.8-35.1l0,0c9.2-6.8,17.8-15.1,24.6-24.5c6.8-9.4,11.8-19.9,14-31.4v0l0,0
		C339.6,307.2,340.1,302.9,340.1,298.5z M368.3,236.8c0-3.8-0.9-7.5-2.8-11l0,0l0-0.1c-2.5-5.2-6.5-9.1-11.2-11.8
		c-4.8-2.7-10.4-4.1-16-4.1c-5.1,0-10.1,1.1-14.6,3.4c14.2,12.3,26.7,27.2,34.7,44.6c2.6-2.3,4.8-5,6.5-8.1
		C367.1,245.8,368.3,241.3,368.3,236.8z"/>
</g>
<path fill="#FB4501" d="M273.5,267.9c1.1,2.8,1.6,5.8,1.6,8.7c0,5.9-2,11.6-5.4,16.2c-3.4,4.6-8.1,8.2-13.7,9.7h0c0,0-0.1,0-0.1,0
	c0,0-0.1,0-0.1,0c-2.6,0.9-5.3,1.3-8,1.3c-6.3,0-12.4-2.3-17.3-6.1c-4.9-3.8-8.6-9.3-9.7-15.8h0c0,0,0,0,0-0.1c0,0,0,0,0-0.1h0
	c-0.4-1.7-0.6-3.4-0.6-5c0-5.6,1.9-11.1,5.1-15.6c3.2-4.5,7.6-8,12.8-9.8c0,0,0,0,0,0c0,0,0,0,0.1,0c3-1.1,6.1-1.6,9.2-1.6
	c5.6,0,11.2,1.7,15.8,4.8c4.6,3.1,8.4,7.6,10.2,13.1C273.5,267.8,273.5,267.8,273.5,267.9C273.5,267.9,273.5,267.9,273.5,267.9
	L273.5,267.9L273.5,267.9z"/>
<path fill="#FB4501" d="M105.9,302.5c0,0,0.1,0,0.1,0c2.7,1,5.6,1.5,8.3,1.5c7,0,13.7-2.9,18.9-7.5c5.1-4.7,8.6-11.3,8.6-18.8
	c0-0.2,0-0.4,0-0.6c0-0.3,0-0.7,0-1.1c0-7.5-3.5-14.1-8.5-18.8c-5.1-4.7-11.8-7.6-18.8-7.6c-1.9,0-3.8,0.2-5.6,0.7c0,0,0,0-0.1,0
	c0,0,0,0,0,0c-9.3,1.9-17.4,8.8-20.4,18.2l0,0v0c0,0,0,0,0,0c-0.9,2.6-1.3,5.3-1.3,7.9c0,5.8,1.9,11.4,5.2,16.1
	C95.6,297.2,100.2,300.8,105.9,302.5C105.8,302.4,105.8,302.5,105.9,302.5z"/>
</svg>
