<?xml version="1.0" encoding="UTF-8"?>
<svg xmlns="http://www.w3.org/2000/svg" height="1000" width="924.805"><path d="M1.708 582.272q5.612 -9.272 21.228 -9.272h62.952v-343.552q0 -31.72 21.96 -53.924t53.68 -22.204h479.704l-103.456 153.232h-300.12v266.448h63.44q15.616 0 20.984 9.272t-2.928 21.96l-143.472 234.24q-5.856 7.808 -14.152 7.808 -3.416 0 -6.832 -1.952t-5.368 -3.904l-1.464 -1.952 -143.472 -234.24q-8.296 -12.688 -2.684 -21.96zm281.82 264.008l102.968 -152.744h300.12v-266.936h-63.44q-15.616 0 -20.984 -9.272t2.928 -21.472l143.472 -234.24q5.368 -8.296 13.664 -8.296 3.416 0 7.076 1.952t5.612 3.904l1.464 2.44 143.472 234.24q8.296 12.2 2.684 21.472t-21.228 9.272h-62.952v343.552q0 31.72 -22.204 53.924t-53.924 22.204h-478.728z" fill="#FFFFFF"/></svg>
