<?xml version="1.0" encoding="utf-8"?>
<!-- Generator: Adobe Illustrator 18.1.1, SVG Export Plug-In . SVG Version: 6.00 Build 0)  -->
<svg version="1.1" xmlns="http://www.w3.org/2000/svg" xmlns:xlink="http://www.w3.org/1999/xlink" x="0px" y="0px"
	 viewBox="0 0 482.3 435.8" enable-background="new 0 0 482.3 435.8" xml:space="preserve">
<g id="Layer_1">
</g>
<g id="Layer_2">
	<g>
		<g>
			<path fill="#FFFFFF" d="M44.5,193.1c-0.9,0-1.7,0.7-1.8,1.8c0,0-4.3,39.1-4.3,39.1l4.3,38.2c0.1,1,0.9,1.8,1.8,1.8
				c0.9,0,1.7-0.7,1.8-1.8l4.9-38.2l-4.9-39.1C46.1,193.8,45.4,193.1,44.5,193.1z"/>
			<path fill="#FFFFFF" d="M28.4,208.1c-0.9,0-1.6,0.7-1.7,1.7L23.4,234l3.2,23.8c0.1,1,0.8,1.7,1.7,1.7c0.9,0,1.6-0.7,1.7-1.7
				l3.8-23.8l-3.8-24.2C30,208.8,29.2,208.1,28.4,208.1z"/>
			<path fill="#FFFFFF" d="M61.6,185.4c-1.2,0-2.1,0.9-2.2,2.1c0,0-4.1,46.4-4.1,46.4l4.1,44.7c0.1,1.2,1,2.1,2.2,2.1
				c1.1,0,2-0.9,2.2-2.1l4.6-44.7l-4.6-46.4C63.6,186.3,62.7,185.4,61.6,185.4z"/>
			<path fill="#FFFFFF" d="M78.8,183.8c-1.3,0-2.4,1.1-2.6,2.5L72.4,234l3.8,46.1c0.1,1.4,1.2,2.5,2.6,2.5c1.3,0,2.4-1.1,2.6-2.5
				l4.4-46.1l-4.4-47.7C81.2,184.9,80.1,183.8,78.8,183.8z"/>
			<polygon fill="#FFFFFF" points="99.1,280.5 99.1,280.5 99.1,280.5 			"/>
			<path fill="#FFFFFF" d="M99.1,189.7c-0.1-1.6-1.4-2.9-2.9-2.9c-1.6,0-2.8,1.2-2.9,2.9L89.6,234l3.6,46.5c0.1,1.6,1.4,2.9,2.9,2.9
				c1.6,0,2.8-1.2,2.9-2.9l4.1-46.5L99.1,189.7z"/>
			<path fill="#FFFFFF" d="M113.7,158.8c-1.8,0-3.2,1.4-3.3,3.3c0,0-3.4,71.9-3.4,71.9l3.4,46.5c0.1,1.8,1.5,3.3,3.3,3.3
				c1.7,0,3.2-1.4,3.3-3.3v0l3.9-46.5L117,162C116.9,160.2,115.5,158.8,113.7,158.8z"/>
			<path fill="#FFFFFF" d="M131.1,142.2c-2,0-3.6,1.6-3.7,3.6c0,0-3.2,88.4-3.2,88.4l3.2,46.2c0.1,2,1.7,3.6,3.7,3.6
				c2,0,3.6-1.6,3.7-3.6l0,0l3.6-46.2l-3.6-88.4C134.7,143.8,133.1,142.2,131.1,142.2z"/>
			<path fill="#FFFFFF" d="M149.2,134.2c-2.2,0-4,1.8-4,4c0,0-3,95.8-3,95.8l3,45.7c0.1,2.2,1.9,4,4,4c2.2,0,4-1.8,4-4l0,0l3.3-45.7
				l-3.3-95.8C153.1,136,151.4,134.2,149.2,134.2z"/>
			<path fill="#FFFFFF" d="M171.5,135c-0.1-2.5-2-4.4-4.4-4.4c-2.4,0-4.3,1.9-4.4,4.4l-2.7,99l2.7,45.4c0.1,2.4,2,4.4,4.4,4.4
				c2.4,0,4.3-1.9,4.4-4.4l3.1-45.4L171.5,135z"/>
			<polygon fill="#FFFFFF" points="171.5,279.4 171.5,279.4 171.5,279.5 			"/>
			<path fill="#FFFFFF" d="M185.2,132.8c-2.6,0-4.7,2.1-4.8,4.8l-2.5,96.5l2.5,45c0.1,2.6,2.2,4.7,4.8,4.7c2.6,0,4.7-2.1,4.8-4.8v0
				l2.8-45l-2.8-96.5C189.9,134.9,187.8,132.8,185.2,132.8z"/>
			<path fill="#FFFFFF" d="M203.4,135.9c-2.8,0-5.1,2.3-5.2,5.1l-2.3,93l2.3,44.7c0.1,2.8,2.3,5.1,5.2,5.1c2.8,0,5.1-2.2,5.2-5.1v0
				l2.6-44.7l-2.6-93C208.5,138.2,206.3,135.9,203.4,135.9z"/>
			<path fill="#FFFFFF" d="M224.9,118.9c-0.9-0.6-1.9-0.9-3.1-0.9c-1.1,0-2.1,0.3-3,0.9c-1.5,1-2.5,2.7-2.5,4.6l0,1L214.2,234
				c0,0.1,2.1,44.5,2.1,44.5c0,0.1,0,0.1,0,0.2c0.1,1.2,0.5,2.4,1.3,3.3c1,1.2,2.5,2,4.2,2c1.5,0,2.9-0.6,3.9-1.6
				c1-1,1.6-2.4,1.7-3.9l0.2-4.4l2.1-40l-2.3-110.6C227.3,121.5,226.3,119.9,224.9,118.9z"/>
			<polygon fill="#FFFFFF" points="227.3,278.5 227.3,278.5 227.3,278.5 227.3,278.5 227.3,278.4 227.3,278.4 227.3,278.5 			"/>
			<path fill="#FFFFFF" d="M243.1,108.4c-0.9-0.5-1.9-0.8-3-0.8c-1.4,0-2.7,0.5-3.7,1.3c-1.3,1.1-2.2,2.7-2.2,4.5l0,0.6l-2.4,120
				l1.2,22.2l1.2,21.6c0,3.2,2.7,5.8,5.9,5.8c3.2,0,5.8-2.6,5.9-5.9v0v0l2.6-43.8v0L246,113.4C246,111.3,244.8,109.4,243.1,108.4z"
				/>
			<path fill="#FFFFFF" d="M405.3,176.9c-7.3,0-14.3,1.5-20.7,4.2c-4.3-48.3-44.7-86.1-94.1-86.1c-12.1,0-23.9,2.4-34.3,6.4
				c-4,1.6-5.1,3.2-5.2,6.3c0,0,0,170,0,170c0,3.3,2.6,5.8,5.8,6.1c0.1,0,148.4,0,148.4,0c29.6,0,53.6-23.7,53.6-53.3
				C458.8,200.9,434.9,176.9,405.3,176.9z"/>
		</g>
	</g>
</g>
</svg>
