<?xml version="1.0" encoding="utf-8"?>
<!-- Generator: Adobe Illustrator 18.1.1, SVG Export Plug-In . SVG Version: 6.00 Build 0)  -->
<svg version="1.1" id="Layer_1" xmlns="http://www.w3.org/2000/svg" xmlns:xlink="http://www.w3.org/1999/xlink" x="0px" y="0px"
	 viewBox="0 0 500 500" enable-background="new 0 0 500 500" xml:space="preserve">
<path d="M420.6,142.2c-12.5,5.6-25.8,9.3-39.8,10.9c14.3-8.5,25.3-22.1,30.5-38.3c-13.3,7.9-28.1,13.7-44,16.8
	c-12.6-13.5-30.6-21.9-50.5-21.9c-38.3,0-69.3,31-69.3,69.3c0,5.4,0.6,10.7,1.9,15.8C192,192,141,164.3,106.8,122.5
	c-5.9,10.2-9.4,22.1-9.4,34.8c0,24.1,12.2,45.2,30.9,57.7c-11.4-0.4-22-3.5-31.4-8.6c0,0.2,0,0.6,0,0.9c0,33.6,23.8,61.5,55.6,67.9
	c-5.8,1.6-12,2.5-18.3,2.5c-4.4,0-8.8-0.5-13.1-1.2c8.8,27.5,34.4,47.5,64.7,48.1c-23.7,18.5-53.6,29.6-86,29.6
	c-5.6,0-11.1-0.4-16.5-1c30.6,19.6,67,31.1,106.2,31.1c127.4,0,197-105.6,197-197c0-3-0.1-6-0.2-9
	C399.6,168.4,411.4,156.2,420.6,142.2z"/>
</svg>
