<?xml version="1.0" encoding="utf-8"?>
<!-- Generator: Adobe Illustrator 18.1.1, SVG Export Plug-In . SVG Version: 6.00 Build 0)  -->
<svg version="1.1" id="Layer_1" xmlns="http://www.w3.org/2000/svg" xmlns:xlink="http://www.w3.org/1999/xlink" x="0px" y="0px"
	 viewBox="0 0 500 500" enable-background="new 0 0 500 500" xml:space="preserve">
<g id="pSgyoH.tif" display="none">
</g>
<path fill="#FFFFFF" d="M83.5,370L370.8,84.1c4.7-4.7,12.3-4.6,17,0l28.8,28.9c4.7,4.7,4.6,12.3,0,17L129.2,415.9
	c-4.7,4.7-12.3,4.6-17,0L83.5,387C78.8,382.3,78.8,374.7,83.5,370z"/>
<path fill="#FFFFFF" d="M376.4,417.1l-286.2-287c-4.7-4.7-4.6-12.3,0-17l28.9-28.8c4.7-4.7,12.3-4.6,17,0l286.2,287
	c4.7,4.7,4.6,12.3,0,17l-28.9,28.8C388.7,421.8,381,421.8,376.4,417.1z"/>
</svg>
