<?xml version="1.0" standalone="no"?>
<!DOCTYPE svg PUBLIC "-//W3C//DTD SVG 1.1//EN" "http://www.w3.org/Graphics/SVG/1.1/DTD/svg11.dtd" >
<svg xmlns="http://www.w3.org/2000/svg" width="100%" height="100%">
<metadata>
Created by FontXChange 20100429 at Tue Oct  1 16:48:18 2013
 By Hugh Francis
Copyright URW Software, Copyright 1994 by URW
</metadata>
<defs>
<font id="NeuzeitGroT-Regu" horiz-adv-x="500" >
  <font-face 
    font-family="Neuzeit Grotesk T"
    font-weight="400"
    font-stretch="normal"
    units-per-em="1000"
    panose-1="2 0 5 3 0 0 0 0 0 0"
    ascent="800"
    descent="-200"
    x-height="461"
    cap-height="667"
    bbox="-183 -234 948 868"
    underline-thickness="54"
    underline-position="-97"
    stemh="68"
    stemv="78"
    unicode-range="U+0020-FB02"
  />
    <missing-glyph />
    <glyph glyph-name="Adieresis" unicode="&#xc4;" horiz-adv-x="606" 
d="M452 154h-299l-61 -154h-87l251 667h100l245 -667h-94zM426 226l-122 335l-126 -335h248zM201 838c29 0 51 -23 51 -52c0 -28 -23 -50 -51 -50c-29 0 -51 22 -51 51s22 51 51 51zM405 838c29 0 51 -23 51 -52c0 -28 -23 -50 -51 -50c-29 0 -51 22 -51 51s22 51 51 51z
" />
    <glyph glyph-name="Aacute" unicode="&#xc1;" horiz-adv-x="606" 
d="M452 154h-299l-61 -154h-87l251 667h100l245 -667h-94zM426 226l-122 335l-126 -335h248zM348 850h91l-120 -131h-60z" />
    <glyph glyph-name="Agrave" unicode="&#xc0;" horiz-adv-x="606" 
d="M452 154h-299l-61 -154h-87l251 667h100l245 -667h-94zM426 226l-122 335l-126 -335h248zM258 850l88 -131h-60l-120 131h92z" />
    <glyph glyph-name="Acircumflex" unicode="&#xc2;" horiz-adv-x="606" 
d="M452 154h-299l-61 -154h-87l251 667h100l245 -667h-94zM426 226l-122 335l-126 -335h248zM304 802l-76 -83h-66l109 133h69l104 -133h-65z" />
    <glyph glyph-name="Atilde" unicode="&#xc3;" horiz-adv-x="606" 
d="M452 154h-299l-61 -154h-87l251 667h100l245 -667h-94zM426 226l-122 335l-126 -335h248zM415 834l54 -21c-32 -60 -60 -83 -98 -83c-20 0 -30 3 -71 24c-22 11 -39 17 -49 17c-20 0 -35 -13 -47 -42l-54 16c30 65 56 89 95 89c18 0 34 -5 77 -27c27 -13 36 -17 45 -17
c19 0 35 15 48 44z" />
    <glyph glyph-name="Aring" unicode="&#xc5;" horiz-adv-x="606" 
d="M452 154h-299l-61 -154h-87l251 667h100l245 -667h-94zM426 226l-122 335l-126 -335h248zM304 868c45 0 79 -35 79 -81c0 -43 -36 -78 -80 -78c-45 0 -80 35 -80 80c0 44 35 79 81 79zM303 836c-27 0 -48 -20 -48 -48c0 -27 21 -47 48 -47s48 21 48 47
c0 27 -20 48 -48 48z" />
    <glyph glyph-name="Edieresis" unicode="&#xcb;" horiz-adv-x="473" 
d="M159 595v-223h263v-72h-263v-228h263v-72h-347v667h347v-72h-263zM134 838c29 0 51 -23 51 -52c0 -28 -23 -50 -51 -50c-29 0 -51 22 -51 51s22 51 51 51zM338 838c29 0 51 -23 51 -52c0 -28 -23 -50 -51 -50c-29 0 -51 22 -51 51s22 51 51 51z" />
    <glyph glyph-name="Eacute" unicode="&#xc9;" horiz-adv-x="473" 
d="M159 595v-223h263v-72h-263v-228h263v-72h-347v667h347v-72h-263zM282 850h91l-120 -131h-60z" />
    <glyph glyph-name="Egrave" unicode="&#xc8;" horiz-adv-x="473" 
d="M159 595v-223h263v-72h-263v-228h263v-72h-347v667h347v-72h-263zM192 850l88 -131h-60l-120 131h92z" />
    <glyph glyph-name="Ecircumflex" unicode="&#xca;" horiz-adv-x="473" 
d="M159 595v-223h263v-72h-263v-228h263v-72h-347v667h347v-72h-263zM237 802l-76 -83h-66l109 133h69l104 -133h-65z" />
    <glyph glyph-name="Idieresis" unicode="&#xcf;" horiz-adv-x="250" 
d="M167 667v-667h-84v667h84zM51 838c29 0 51 -23 51 -52c0 -28 -23 -50 -51 -50c-29 0 -51 22 -51 51s22 51 51 51zM199 838c29 0 51 -23 51 -52c0 -28 -23 -50 -51 -50c-29 0 -51 22 -51 51s22 51 51 51z" />
    <glyph glyph-name="Iacute" unicode="&#xcd;" horiz-adv-x="250" 
d="M167 667v-667h-84v667h84zM171 850h91l-120 -131h-60z" />
    <glyph glyph-name="Igrave" unicode="&#xcc;" horiz-adv-x="250" 
d="M167 667v-667h-84v667h84zM80 850l88 -131h-60l-120 131h92z" />
    <glyph glyph-name="Icircumflex" unicode="&#xce;" horiz-adv-x="250" 
d="M167 667v-667h-84v667h84zM126 802l-76 -83h-66l109 133h69l104 -133h-65z" />
    <glyph glyph-name="Ntilde" unicode="&#xd1;" horiz-adv-x="683" 
d="M167 510v-510h-84v667h77l356 -502v502h84v-667h-74zM453 834l54 -21c-32 -60 -60 -83 -98 -83c-20 0 -30 3 -71 24c-22 11 -39 17 -49 17c-20 0 -35 -13 -47 -42l-54 16c30 65 56 89 95 89c18 0 34 -5 77 -27c27 -13 36 -17 45 -17c19 0 35 15 48 44z" />
    <glyph glyph-name="Odieresis" unicode="&#xd6;" horiz-adv-x="742" 
d="M374 679c97 0 191 -46 253 -125c49 -61 71 -131 71 -227c0 -109 -44 -204 -123 -267c-58 -47 -130 -72 -203 -72c-103 0 -204 51 -265 135c-41 56 -63 127 -63 207c0 199 141 349 330 349zM372 601c-139 0 -242 -114 -242 -268c0 -155 102 -268 240 -268
c70 0 140 33 184 87c35 42 58 112 58 176c0 92 -26 160 -82 210c-44 40 -102 63 -158 63zM269 838c29 0 51 -23 51 -52c0 -28 -23 -50 -51 -50c-29 0 -51 22 -51 51s22 51 51 51zM473 838c29 0 51 -23 51 -52c0 -28 -23 -50 -51 -50c-29 0 -51 22 -51 51s22 51 51 51z" />
    <glyph glyph-name="Oacute" unicode="&#xd3;" horiz-adv-x="742" 
d="M374 679c97 0 191 -46 253 -125c49 -61 71 -131 71 -227c0 -109 -44 -204 -123 -267c-58 -47 -130 -72 -203 -72c-103 0 -204 51 -265 135c-41 56 -63 127 -63 207c0 199 141 349 330 349zM372 601c-139 0 -242 -114 -242 -268c0 -155 102 -268 240 -268
c70 0 140 33 184 87c35 42 58 112 58 176c0 92 -26 160 -82 210c-44 40 -102 63 -158 63zM417 850h91l-120 -131h-60z" />
    <glyph glyph-name="Ograve" unicode="&#xd2;" horiz-adv-x="742" 
d="M374 679c97 0 191 -46 253 -125c49 -61 71 -131 71 -227c0 -109 -44 -204 -123 -267c-58 -47 -130 -72 -203 -72c-103 0 -204 51 -265 135c-41 56 -63 127 -63 207c0 199 141 349 330 349zM372 601c-139 0 -242 -114 -242 -268c0 -155 102 -268 240 -268
c70 0 140 33 184 87c35 42 58 112 58 176c0 92 -26 160 -82 210c-44 40 -102 63 -158 63zM326 850l88 -131h-60l-120 131h92z" />
    <glyph glyph-name="Ocircumflex" unicode="&#xd4;" horiz-adv-x="742" 
d="M374 679c97 0 191 -46 253 -125c49 -61 71 -131 71 -227c0 -109 -44 -204 -123 -267c-58 -47 -130 -72 -203 -72c-103 0 -204 51 -265 135c-41 56 -63 127 -63 207c0 199 141 349 330 349zM372 601c-139 0 -242 -114 -242 -268c0 -155 102 -268 240 -268
c70 0 140 33 184 87c35 42 58 112 58 176c0 92 -26 160 -82 210c-44 40 -102 63 -158 63zM372 802l-76 -83h-66l109 133h69l104 -133h-65z" />
    <glyph glyph-name="Otilde" unicode="&#xd5;" horiz-adv-x="742" 
d="M374 679c97 0 191 -46 253 -125c49 -61 71 -131 71 -227c0 -109 -44 -204 -123 -267c-58 -47 -130 -72 -203 -72c-103 0 -204 51 -265 135c-41 56 -63 127 -63 207c0 199 141 349 330 349zM372 601c-139 0 -242 -114 -242 -268c0 -155 102 -268 240 -268
c70 0 140 33 184 87c35 42 58 112 58 176c0 92 -26 160 -82 210c-44 40 -102 63 -158 63zM483 834l54 -21c-32 -60 -60 -83 -98 -83c-20 0 -30 3 -71 24c-22 11 -39 17 -49 17c-20 0 -35 -13 -47 -42l-54 16c30 65 56 89 95 89c18 0 34 -5 77 -27c27 -13 36 -17 45 -17
c19 0 35 15 48 44z" />
    <glyph glyph-name="Scaron" unicode="&#x160;" horiz-adv-x="490" 
d="M38 179h80c4 -76 45 -116 118 -116c75 0 128 46 128 113c0 58 -30 85 -135 120c-79 27 -105 40 -135 67c-34 31 -52 75 -52 126c0 113 81 190 199 190s195 -75 198 -191h-84c-1 34 -5 50 -16 69c-19 29 -56 47 -99 47c-66 0 -113 -45 -113 -109c0 -32 14 -60 38 -77
c21 -15 39 -23 107 -47c71 -25 105 -43 132 -72c29 -31 45 -73 45 -118c0 -115 -85 -193 -210 -193c-85 0 -143 30 -178 90c-16 27 -23 55 -23 87v14zM246 769l75 83h66l-108 -133h-70l-104 133h65z" />
    <glyph glyph-name="Udieresis" unicode="&#xdc;" horiz-adv-x="636" 
d="M155 667v-397c0 -85 12 -128 44 -160c28 -27 76 -45 118 -45s89 19 118 49c36 35 45 69 45 158v395h86v-395c0 -100 -16 -157 -59 -205c-45 -51 -112 -79 -188 -79c-78 0 -149 30 -194 84c-41 47 -54 96 -54 200v395h84zM216 838c29 0 51 -23 51 -52
c0 -28 -23 -50 -51 -50c-29 0 -51 22 -51 51s22 51 51 51zM420 838c29 0 51 -23 51 -52c0 -28 -23 -50 -51 -50c-29 0 -51 22 -51 51s22 51 51 51z" />
    <glyph glyph-name="Uacute" unicode="&#xda;" horiz-adv-x="636" 
d="M155 667v-397c0 -85 12 -128 44 -160c28 -27 76 -45 118 -45s89 19 118 49c36 35 45 69 45 158v395h86v-395c0 -100 -16 -157 -59 -205c-45 -51 -112 -79 -188 -79c-78 0 -149 30 -194 84c-41 47 -54 96 -54 200v395h84zM364 850h91l-120 -131h-60z" />
    <glyph glyph-name="Ugrave" unicode="&#xd9;" horiz-adv-x="636" 
d="M155 667v-397c0 -85 12 -128 44 -160c28 -27 76 -45 118 -45s89 19 118 49c36 35 45 69 45 158v395h86v-395c0 -100 -16 -157 -59 -205c-45 -51 -112 -79 -188 -79c-78 0 -149 30 -194 84c-41 47 -54 96 -54 200v395h84zM274 850l88 -131h-60l-120 131h92z" />
    <glyph glyph-name="Ucircumflex" unicode="&#xdb;" horiz-adv-x="636" 
d="M155 667v-397c0 -85 12 -128 44 -160c28 -27 76 -45 118 -45s89 19 118 49c36 35 45 69 45 158v395h86v-395c0 -100 -16 -157 -59 -205c-45 -51 -112 -79 -188 -79c-78 0 -149 30 -194 84c-41 47 -54 96 -54 200v395h84zM320 802l-76 -83h-66l109 133h69l104 -133h-65z
" />
    <glyph glyph-name="Yacute" unicode="&#xdd;" horiz-adv-x="529" 
d="M308 294v-294h-84v294l-230 373h99l172 -286l170 286h100zM310 850h91l-120 -131h-60z" />
    <glyph glyph-name="Zcaron" unicode="&#x17d;" horiz-adv-x="539" 
d="M152 72h338v-72h-477l378 595h-336v72h474zM269 769l75 83h66l-108 -133h-70l-104 133h65z" />
    <glyph glyph-name="Ydieresis" unicode="&#x178;" horiz-adv-x="529" 
d="M308 294v-294h-84v294l-230 373h99l172 -286l170 286h100zM162 838c29 0 51 -23 51 -52c0 -28 -23 -50 -51 -50c-29 0 -51 22 -51 51s22 51 51 51zM366 838c29 0 51 -23 51 -52c0 -28 -23 -50 -51 -50c-29 0 -51 22 -51 51s22 51 51 51z" />
    <glyph glyph-name="adieresis" unicode="&#xe4;" horiz-adv-x="577" 
d="M424 385v76h76v-461h-76v89c-46 -69 -98 -100 -168 -100c-127 0 -217 100 -217 240c0 141 92 243 219 243c70 0 121 -27 166 -87zM269 404c-52 0 -88 -18 -116 -60c-22 -32 -34 -74 -34 -117c0 -98 64 -172 148 -172c87 0 158 81 158 180c0 100 -64 169 -156 169z
M193 640c27 0 47 -20 47 -48c0 -26 -20 -46 -47 -46s-47 20 -47 47s20 47 47 47zM393 640c27 0 47 -20 47 -48c0 -26 -20 -46 -47 -46s-47 20 -47 47s20 47 47 47z" />
    <glyph glyph-name="aacute" unicode="&#xe1;" horiz-adv-x="577" 
d="M424 385v76h76v-461h-76v89c-46 -69 -98 -100 -168 -100c-127 0 -217 100 -217 240c0 141 92 243 219 243c70 0 121 -27 166 -87zM269 404c-52 0 -88 -18 -116 -60c-22 -32 -34 -74 -34 -117c0 -98 64 -172 148 -172c87 0 158 81 158 180c0 100 -64 169 -156 169z
M332 660h89l-117 -132h-55z" />
    <glyph glyph-name="agrave" unicode="&#xe0;" horiz-adv-x="577" 
d="M424 385v76h76v-461h-76v89c-46 -69 -98 -100 -168 -100c-127 0 -217 100 -217 240c0 141 92 243 219 243c70 0 121 -27 166 -87zM269 404c-52 0 -88 -18 -116 -60c-22 -32 -34 -74 -34 -117c0 -98 64 -172 148 -172c87 0 158 81 158 180c0 100 -64 169 -156 169z
M245 660l82 -132h-54l-118 132h90z" />
    <glyph glyph-name="acircumflex" unicode="&#xe2;" horiz-adv-x="577" 
d="M424 385v76h76v-461h-76v89c-46 -69 -98 -100 -168 -100c-127 0 -217 100 -217 240c0 141 92 243 219 243c70 0 121 -27 166 -87zM269 404c-52 0 -88 -18 -116 -60c-22 -32 -34 -74 -34 -117c0 -98 64 -172 148 -172c87 0 158 81 158 180c0 100 -64 169 -156 169z
M288 612l-73 -84h-65l104 133h72l101 -133h-66z" />
    <glyph glyph-name="atilde" unicode="&#xe3;" horiz-adv-x="577" 
d="M424 385v76h76v-461h-76v89c-46 -69 -98 -100 -168 -100c-127 0 -217 100 -217 240c0 141 92 243 219 243c70 0 121 -27 166 -87zM269 404c-52 0 -88 -18 -116 -60c-22 -32 -34 -74 -34 -117c0 -98 64 -172 148 -172c87 0 158 81 158 180c0 100 -64 169 -156 169z
M400 640l50 -18c-30 -60 -57 -84 -94 -84c-21 0 -38 7 -86 36c-16 10 -24 13 -33 13c-20 0 -34 -12 -47 -41l-51 23c28 54 57 78 95 78c25 0 47 -9 93 -39c12 -8 17 -10 26 -10c20 0 35 14 47 42z" />
    <glyph glyph-name="aring" unicode="&#xe5;" horiz-adv-x="577" 
d="M424 385v76h76v-461h-76v89c-46 -69 -98 -100 -168 -100c-127 0 -217 100 -217 240c0 141 92 243 219 243c70 0 121 -27 166 -87zM269 404c-52 0 -88 -18 -116 -60c-22 -32 -34 -74 -34 -117c0 -98 64 -172 148 -172c87 0 158 81 158 180c0 100 -64 169 -156 169z
M273 677c45 0 79 -35 79 -81c0 -43 -36 -78 -80 -78c-45 0 -80 35 -80 79c0 45 35 80 81 80zM272 645c-27 0 -48 -20 -48 -48c0 -27 21 -47 48 -47s48 21 48 47c0 27 -20 48 -48 48z" />
    <glyph glyph-name="edieresis" unicode="&#xeb;" horiz-adv-x="539" 
d="M504 206h-384c10 -89 70 -147 154 -147c57 0 111 31 138 79l67 -25c-38 -77 -117 -124 -205 -124c-137 0 -235 100 -235 240c0 142 97 243 232 243c134 0 234 -101 234 -236c0 -7 0 -19 -1 -30zM121 262h303c-3 36 -10 56 -26 79c-29 39 -76 63 -127 63s-97 -24 -124 -64
c-14 -22 -20 -41 -26 -78zM169 640c27 0 47 -20 47 -48c0 -26 -20 -46 -47 -46s-47 20 -47 47s20 47 47 47zM369 640c27 0 47 -20 47 -48c0 -26 -20 -46 -47 -46s-47 20 -47 47s20 47 47 47z" />
    <glyph glyph-name="eacute" unicode="&#xe9;" horiz-adv-x="539" 
d="M504 206h-384c10 -89 70 -147 154 -147c57 0 111 31 138 79l67 -25c-38 -77 -117 -124 -205 -124c-137 0 -235 100 -235 240c0 142 97 243 232 243c134 0 234 -101 234 -236c0 -7 0 -19 -1 -30zM121 262h303c-3 36 -10 56 -26 79c-29 39 -76 63 -127 63s-97 -24 -124 -64
c-14 -22 -20 -41 -26 -78zM313 660h89l-117 -132h-55z" />
    <glyph glyph-name="egrave" unicode="&#xe8;" horiz-adv-x="539" 
d="M504 206h-384c10 -89 70 -147 154 -147c57 0 111 31 138 79l67 -25c-38 -77 -117 -124 -205 -124c-137 0 -235 100 -235 240c0 142 97 243 232 243c134 0 234 -101 234 -236c0 -7 0 -19 -1 -30zM121 262h303c-3 36 -10 56 -26 79c-29 39 -76 63 -127 63s-97 -24 -124 -64
c-14 -22 -20 -41 -26 -78zM227 660l82 -132h-54l-118 132h90z" />
    <glyph glyph-name="ecircumflex" unicode="&#xea;" horiz-adv-x="539" 
d="M504 206h-384c10 -89 70 -147 154 -147c57 0 111 31 138 79l67 -25c-38 -77 -117 -124 -205 -124c-137 0 -235 100 -235 240c0 142 97 243 232 243c134 0 234 -101 234 -236c0 -7 0 -19 -1 -30zM121 262h303c-3 36 -10 56 -26 79c-29 39 -76 63 -127 63s-97 -24 -124 -64
c-14 -22 -20 -41 -26 -78zM269 612l-73 -84h-65l104 133h72l101 -133h-66z" />
    <glyph glyph-name="idieresis" unicode="&#xef;" horiz-adv-x="229" 
d="M152 461v-461h-76v461h76zM45 640c27 0 47 -20 47 -48c0 -26 -20 -46 -47 -46s-47 20 -47 47s20 47 47 47zM184 640c27 0 47 -20 47 -48c0 -26 -20 -46 -47 -46s-47 20 -47 47s20 47 47 47z" />
    <glyph glyph-name="iacute" unicode="&#xed;" horiz-adv-x="229" 
d="M152 461v-461h-76v461h76zM158 660h89l-117 -132h-55z" />
    <glyph glyph-name="igrave" unicode="&#xec;" horiz-adv-x="229" 
d="M153 461v-461h-76v461h76zM72 660l82 -132h-54l-118 132h90z" />
    <glyph glyph-name="icircumflex" unicode="&#xee;" horiz-adv-x="229" 
d="M152 461v-461h-76v461h76zM114 612l-73 -84h-65l104 133h72l101 -133h-66z" />
    <glyph glyph-name="ntilde" unicode="&#xf1;" horiz-adv-x="509" 
d="M76 461h76v-65c40 54 80 76 137 76c42 0 80 -14 107 -38c29 -28 39 -60 39 -123v-311h-76v294c0 41 -5 63 -17 79c-13 19 -41 31 -72 31c-34 0 -65 -13 -88 -39c-22 -24 -30 -46 -30 -84v-281h-76v461zM366 640l50 -18c-30 -60 -57 -84 -94 -84c-21 0 -38 7 -86 36
c-16 10 -24 13 -33 13c-20 0 -34 -12 -47 -41l-51 23c28 54 57 78 95 78c25 0 47 -9 93 -39c12 -8 17 -10 26 -10c20 0 35 14 47 42z" />
    <glyph glyph-name="odieresis" unicode="&#xf6;" horiz-adv-x="548" 
d="M275 472c136 0 233 -101 233 -243c0 -135 -103 -240 -236 -240c-137 0 -233 100 -233 242c0 143 96 241 236 241zM275 402c-95 0 -158 -69 -158 -172c0 -102 63 -171 157 -171c91 0 156 71 156 171c0 103 -62 172 -155 172zM174 640c27 0 47 -20 47 -48
c0 -26 -20 -46 -47 -46s-47 20 -47 47s20 47 47 47zM374 640c27 0 47 -20 47 -48c0 -26 -20 -46 -47 -46s-47 20 -47 47s20 47 47 47z" />
    <glyph glyph-name="oacute" unicode="&#xf3;" horiz-adv-x="548" 
d="M275 472c136 0 233 -101 233 -243c0 -135 -103 -240 -236 -240c-137 0 -233 100 -233 242c0 143 96 241 236 241zM275 402c-95 0 -158 -69 -158 -172c0 -102 63 -171 157 -171c91 0 156 71 156 171c0 103 -62 172 -155 172zM317 660h89l-117 -132h-55z" />
    <glyph glyph-name="ograve" unicode="&#xf2;" horiz-adv-x="548" 
d="M275 472c136 0 233 -101 233 -243c0 -135 -103 -240 -236 -240c-137 0 -233 100 -233 242c0 143 96 241 236 241zM275 402c-95 0 -158 -69 -158 -172c0 -102 63 -171 157 -171c91 0 156 71 156 171c0 103 -62 172 -155 172zM231 660l82 -132h-54l-118 132h90z" />
    <glyph glyph-name="ocircumflex" unicode="&#xf4;" horiz-adv-x="548" 
d="M275 472c136 0 233 -101 233 -243c0 -135 -103 -240 -236 -240c-137 0 -233 100 -233 242c0 143 96 241 236 241zM275 402c-95 0 -158 -69 -158 -172c0 -102 63 -171 157 -171c91 0 156 71 156 171c0 103 -62 172 -155 172zM273 612l-73 -84h-65l104 133h72l101 -133h-66
z" />
    <glyph glyph-name="otilde" unicode="&#xf5;" horiz-adv-x="548" 
d="M275 472c136 0 233 -101 233 -243c0 -135 -103 -240 -236 -240c-137 0 -233 100 -233 242c0 143 96 241 236 241zM275 402c-95 0 -158 -69 -158 -172c0 -102 63 -171 157 -171c91 0 156 71 156 171c0 103 -62 172 -155 172zM386 640l50 -18c-30 -60 -57 -84 -94 -84
c-21 0 -38 7 -86 36c-16 10 -24 13 -33 13c-20 0 -34 -12 -47 -41l-51 23c28 54 57 78 95 78c25 0 47 -9 93 -39c12 -8 17 -10 26 -10c20 0 35 14 47 42z" />
    <glyph glyph-name="scaron" unicode="&#x161;" horiz-adv-x="411" 
d="M365 335h-76v5c0 43 -35 70 -88 70c-50 0 -83 -26 -83 -65c0 -42 18 -56 103 -79c59 -16 90 -31 112 -53c23 -23 37 -56 37 -90c0 -80 -66 -134 -164 -134c-105 0 -164 49 -172 142h75c5 -52 39 -80 97 -80c52 0 86 27 86 68c0 40 -26 60 -105 80
c-100 27 -145 69 -145 139c0 80 65 134 162 134c98 0 157 -50 161 -137zM206 577l73 84h65l-104 -133h-72l-101 133h66z" />
    <glyph glyph-name="udieresis" unicode="&#xfc;" horiz-adv-x="485" 
d="M344 461h77v-295c0 -63 -12 -98 -46 -129s-82 -48 -133 -48c-52 0 -100 18 -133 49c-31 30 -46 72 -46 128v295h76v-293c0 -65 42 -111 103 -111c32 0 63 13 81 35c15 18 21 38 21 74v295zM142 640c27 0 47 -20 47 -48c0 -26 -20 -46 -47 -46s-47 20 -47 47s20 47 47 47z
M342 640c27 0 47 -20 47 -48c0 -26 -20 -46 -47 -46s-47 20 -47 47s20 47 47 47z" />
    <glyph glyph-name="uacute" unicode="&#xfa;" horiz-adv-x="485" 
d="M344 461h77v-295c0 -63 -12 -98 -46 -129s-82 -48 -133 -48c-52 0 -100 18 -133 49c-31 30 -46 72 -46 128v295h76v-293c0 -65 42 -111 103 -111c32 0 63 13 81 35c15 18 21 38 21 74v295zM286 660h89l-117 -132h-55z" />
    <glyph glyph-name="ugrave" unicode="&#xf9;" horiz-adv-x="485" 
d="M344 461h77v-295c0 -63 -12 -98 -46 -129s-82 -48 -133 -48c-52 0 -100 18 -133 49c-31 30 -46 72 -46 128v295h76v-293c0 -65 42 -111 103 -111c32 0 63 13 81 35c15 18 21 38 21 74v295zM199 660l82 -132h-54l-118 132h90z" />
    <glyph glyph-name="ucircumflex" unicode="&#xfb;" horiz-adv-x="485" 
d="M344 461h77v-295c0 -63 -12 -98 -46 -129s-82 -48 -133 -48c-52 0 -100 18 -133 49c-31 30 -46 72 -46 128v295h76v-293c0 -65 42 -111 103 -111c32 0 63 13 81 35c15 18 21 38 21 74v295zM242 612l-73 -84h-65l104 133h72l101 -133h-66z" />
    <glyph glyph-name="yacute" unicode="&#xfd;" horiz-adv-x="438" 
d="M211 119l138 342h83l-275 -683h-83l96 236l-164 447h81zM262 660h89l-117 -132h-55z" />
    <glyph glyph-name="zcaron" unicode="&#x17e;" horiz-adv-x="401" 
d="M150 67h212v-67h-340l240 394h-214v67h339zM201 577l73 84h65l-104 -133h-72l-101 133h66z" />
    <glyph glyph-name="ydieresis" unicode="&#xff;" horiz-adv-x="438" 
d="M211 119l138 342h83l-275 -683h-83l96 236l-164 447h81zM119 640c27 0 47 -20 47 -48c0 -26 -20 -46 -47 -46s-47 20 -47 47s20 47 47 47zM319 640c27 0 47 -20 47 -48c0 -26 -20 -46 -47 -46s-47 20 -47 47s20 47 47 47z" />
    <glyph glyph-name="A" unicode="A" horiz-adv-x="606" 
d="M452 154h-299l-61 -154h-87l251 667h100l245 -667h-94zM426 226l-122 335l-126 -335h248z" />
    <glyph glyph-name="B" unicode="B" horiz-adv-x="551" 
d="M83 667h188c136 0 213 -64 213 -177c0 -42 -13 -81 -38 -108c-17 -19 -32 -29 -68 -43c38 -8 55 -15 76 -32c36 -28 55 -73 55 -127c0 -63 -27 -117 -72 -146c-39 -25 -82 -34 -166 -34h-188v667zM167 598v-230h85c52 0 85 8 109 27c26 20 41 54 41 91
c0 43 -20 81 -53 96c-24 12 -52 16 -113 16h-69zM167 300v-232h84c70 0 97 5 126 22c32 18 48 50 48 95c0 80 -47 115 -153 115h-105z" />
    <glyph glyph-name="C" unicode="C" horiz-adv-x="630" 
d="M550 157l56 -56c-67 -79 -141 -113 -244 -113c-185 0 -318 144 -318 345c0 200 135 346 319 346c60 0 119 -16 167 -45c27 -17 45 -33 78 -69l-58 -54c-65 67 -114 91 -185 91c-136 0 -235 -113 -235 -269c0 -155 101 -268 239 -268c73 0 129 29 181 92z" />
    <glyph glyph-name="D" unicode="D" horiz-adv-x="626" 
d="M83 0v667h177c201 0 322 -122 322 -323c0 -113 -37 -207 -105 -267c-58 -52 -135 -77 -232 -77h-162zM167 596v-524h30c113 0 161 12 209 50c60 48 90 122 90 221c0 161 -86 253 -239 253h-90z" />
    <glyph glyph-name="E" unicode="E" horiz-adv-x="473" 
d="M159 595v-223h263v-72h-263v-228h263v-72h-347v667h347v-72h-263z" />
    <glyph glyph-name="F" unicode="F" horiz-adv-x="456" 
d="M167 595v-223h260v-72h-260v-300h-84v667h344v-72h-260z" />
    <glyph glyph-name="G" unicode="G" horiz-adv-x="732" 
d="M374 361h318c1 -14 1 -32 1 -38c0 -89 -20 -151 -69 -213c-64 -80 -150 -122 -251 -122c-190 0 -329 145 -329 344c0 202 138 347 329 347c101 0 188 -42 251 -121l-63 -51c-26 29 -38 41 -56 53c-37 27 -84 42 -132 42c-138 0 -243 -116 -243 -269
c0 -151 105 -268 241 -268c74 0 151 39 192 98c26 35 36 68 43 126h-232v72z" />
    <glyph glyph-name="H" unicode="H" horiz-adv-x="659" 
d="M167 295v-295h-84v667h84v-300h325v300h84v-667h-84v295h-325z" />
    <glyph glyph-name="I" unicode="I" horiz-adv-x="250" 
d="M167 667v-667h-84v667h84z" />
    <glyph glyph-name="J" unicode="J" horiz-adv-x="374" 
d="M303 667v-461c0 -144 -76 -210 -244 -210c-7 0 -19 0 -33 1v73c20 -2 30 -2 41 -2c51 0 88 12 113 35c29 28 39 65 39 150v342h-193v72h277z" />
    <glyph glyph-name="K" unicode="K" horiz-adv-x="539" 
d="M167 308v-308h-84v667h84v-307l259 307h101l-278 -330l278 -337h-107z" />
    <glyph glyph-name="L" unicode="L" horiz-adv-x="427" 
d="M167 76h235v-76h-319v667h84v-591z" />
    <glyph glyph-name="M" unicode="M" horiz-adv-x="828" 
d="M167 489v-489h-84v667h83l247 -500l250 500h82v-667h-84v488l-248 -495z" />
    <glyph glyph-name="N" unicode="N" horiz-adv-x="683" 
d="M167 510v-510h-84v667h77l356 -502v502h84v-667h-74z" />
    <glyph glyph-name="O" unicode="O" horiz-adv-x="742" 
d="M374 679c97 0 191 -46 253 -125c49 -61 71 -131 71 -227c0 -109 -44 -204 -123 -267c-58 -47 -130 -72 -203 -72c-103 0 -204 51 -265 135c-41 56 -63 127 -63 207c0 199 141 349 330 349zM372 601c-139 0 -242 -114 -242 -268c0 -155 102 -268 240 -268
c70 0 140 33 184 87c35 42 58 112 58 176c0 92 -26 160 -82 210c-44 40 -102 63 -158 63z" />
    <glyph glyph-name="P" unicode="P" horiz-adv-x="531" 
d="M167 255v-255h-84v667h178c159 0 245 -72 245 -205c0 -74 -33 -139 -89 -174c-34 -22 -85 -33 -147 -33h-103zM167 327h87c36 0 60 3 83 12c51 18 84 65 84 122s-32 103 -85 121c-26 9 -53 13 -93 13h-76v-268z" />
    <glyph glyph-name="Q" unicode="Q" horiz-adv-x="747" 
d="M703 33l-58 -53l-71 80c-65 -50 -126 -72 -202 -72c-95 0 -192 46 -253 120c-48 59 -73 133 -73 222c0 200 140 349 329 349c186 0 326 -147 326 -343c0 -89 -22 -156 -72 -223zM525 226l48 -52c29 53 41 97 41 158c0 155 -102 269 -240 269c-76 0 -150 -39 -194 -101
c-31 -44 -48 -102 -48 -166c0 -156 101 -268 239 -268c58 0 99 15 146 55l-49 55z" />
    <glyph glyph-name="R" unicode="R" horiz-adv-x="560" 
d="M167 280v-280h-84v667h182c142 0 228 -73 228 -194c0 -76 -36 -137 -100 -170c-31 -16 -60 -22 -119 -26l259 -277h-107zM167 337h84c101 0 156 46 156 130c0 83 -50 128 -142 128h-98v-258z" />
    <glyph glyph-name="S" unicode="S" horiz-adv-x="490" 
d="M38 179h80c4 -76 45 -116 118 -116c75 0 128 46 128 113c0 58 -30 85 -135 120c-79 27 -105 40 -135 67c-34 31 -52 75 -52 126c0 113 81 190 199 190s195 -75 198 -191h-84c-1 34 -5 50 -16 69c-19 29 -56 47 -99 47c-66 0 -113 -45 -113 -109c0 -32 14 -60 38 -77
c21 -15 39 -23 107 -47c71 -25 105 -43 132 -72c29 -31 45 -73 45 -118c0 -115 -85 -193 -210 -193c-85 0 -143 30 -178 90c-16 27 -23 55 -23 87v14z" />
    <glyph glyph-name="T" unicode="T" horiz-adv-x="443" 
d="M264 595v-595h-84v595h-170v72h423v-72h-169z" />
    <glyph glyph-name="U" unicode="U" horiz-adv-x="636" 
d="M155 667v-397c0 -85 12 -128 44 -160c28 -27 76 -45 118 -45s89 19 118 49c36 35 45 69 45 158v395h86v-395c0 -100 -16 -157 -59 -205c-45 -51 -112 -79 -188 -79c-78 0 -149 30 -194 84c-41 47 -54 96 -54 200v395h84z" />
    <glyph glyph-name="V" unicode="V" horiz-adv-x="549" 
d="M272 137l183 530h89l-232 -667h-82l-225 667h88z" />
    <glyph glyph-name="W" unicode="W" horiz-adv-x="861" 
d="M616 154l153 513h87l-204 -667h-74l-147 524l-148 -524h-74l-204 667h89l152 -511l148 511h79z" />
    <glyph glyph-name="X" unicode="X" horiz-adv-x="552" 
d="M278 266l-170 -266h-102l223 340l-215 327h101l163 -253l164 253h98l-214 -327l220 -340h-97z" />
    <glyph glyph-name="Y" unicode="Y" horiz-adv-x="529" 
d="M308 294v-294h-84v294l-230 373h99l172 -286l170 286h100z" />
    <glyph glyph-name="Z" unicode="Z" horiz-adv-x="539" 
d="M152 72h338v-72h-477l378 595h-336v72h474z" />
    <glyph glyph-name="AE" unicode="&#xc6;" horiz-adv-x="813" 
d="M504 300v-228h260v-72h-344v167h-242l-93 -167h-89l373 667h395v-72h-260v-223h260v-72h-260zM420 237v369l-204 -369h204z" />
    <glyph glyph-name="OE" unicode="&#x152;" horiz-adv-x="998" 
d="M689 300v-228h259v-72h-342v115c-30 -42 -47 -60 -82 -81c-49 -31 -103 -46 -159 -46c-90 0 -179 40 -237 107c-52 59 -82 148 -82 242c0 200 135 342 325 342c101 0 174 -37 235 -119v107h342v-72h-259v-223h259v-72h-259zM374 601c-144 0 -242 -108 -242 -266
c0 -155 101 -269 237 -269c137 0 239 112 239 263c0 163 -93 272 -234 272z" />
    <glyph glyph-name="Oslash" unicode="&#xd8;" horiz-adv-x="740" 
d="M152 74l-75 -79l-27 26l75 80c-59 73 -81 134 -81 228c0 109 36 199 106 263c61 56 140 87 220 87s154 -29 220 -86l70 76l28 -27l-71 -76c58 -80 79 -140 79 -230c0 -200 -141 -348 -331 -348c-81 0 -142 25 -213 86zM559 506l-351 -376c49 -44 99 -65 159 -65
c142 0 243 113 243 272c0 69 -14 114 -51 169zM182 160l351 376c-51 44 -104 66 -161 66c-140 0 -242 -113 -242 -269c0 -70 16 -121 52 -173z" />
    <glyph glyph-name="Ccedilla" unicode="&#xc7;" horiz-adv-x="630" 
d="M550 157l56 -56c-67 -79 -141 -113 -244 -113c-185 0 -318 144 -318 345c0 200 135 346 319 346c100 0 172 -34 245 -114l-58 -54c-64 67 -114 91 -185 91c-136 0 -235 -113 -235 -269c0 -155 101 -268 239 -268c73 0 129 28 181 92zM285 -209l-43 34c51 32 77 66 90 118
l78 -27c-21 -51 -60 -89 -125 -125z" />
    <glyph glyph-name="Eth" unicode="&#xd0;" horiz-adv-x="626" 
d="M83 372v295h177c201 0 322 -122 322 -324c0 -112 -37 -206 -105 -266c-58 -52 -135 -77 -232 -77h-162v304h-75v68h75zM167 372h163v-68h-163v-232h30c113 0 162 12 209 50c60 47 90 122 90 220c0 162 -86 254 -238 254h-91v-224z" />
    <glyph glyph-name="Lslash" unicode="&#x141;" horiz-adv-x="427" 
d="M83 345v322h84v-277l111 82v-78l-111 -82v-236h235v-76h-319v268l-68 -52v78z" />
    <glyph glyph-name="Thorn" unicode="&#xde;" horiz-adv-x="531" 
d="M162 171v-171h-84v667h84v-84h94c159 0 245 -72 245 -205c0 -74 -33 -139 -89 -174c-34 -22 -85 -33 -147 -33h-103zM162 243h87c36 0 60 3 83 12c51 18 84 65 84 122s-32 103 -85 121c-26 9 -53 13 -93 13h-76v-268z" />
    <glyph glyph-name="a" unicode="a" horiz-adv-x="577" 
d="M424 385v76h76v-461h-76v89c-46 -69 -98 -100 -168 -100c-127 0 -217 100 -217 240c0 141 92 243 219 243c70 0 121 -27 166 -87zM269 404c-52 0 -88 -18 -116 -60c-22 -32 -34 -74 -34 -117c0 -98 64 -172 148 -172c87 0 158 81 158 180c0 100 -64 169 -156 169z" />
    <glyph glyph-name="b" unicode="b" horiz-adv-x="573" 
d="M152 79v-79h-76v667h76v-285c46 63 95 90 162 90c129 0 219 -100 219 -243c0 -141 -89 -240 -215 -240c-71 0 -121 27 -166 90zM304 404c-88 0 -153 -73 -153 -174c0 -105 60 -175 150 -175c91 0 152 69 152 172s-62 177 -149 177z" />
    <glyph glyph-name="c" unicode="c" horiz-adv-x="457" 
d="M388 109l47 -52c-52 -47 -103 -68 -170 -68c-132 0 -226 100 -226 240c0 143 95 243 230 243c66 0 120 -22 168 -69l-49 -49c-35 32 -74 48 -117 48c-91 0 -154 -70 -154 -170c0 -102 63 -173 153 -173c45 0 81 15 118 50z" />
    <glyph glyph-name="d" unicode="d" horiz-adv-x="574" 
d="M421 391v276h76v-667h-76v79c-46 -63 -95 -90 -165 -90c-127 0 -217 99 -217 239s92 244 217 244c68 0 120 -25 165 -81zM272 404c-91 0 -153 -72 -153 -177c0 -101 61 -172 148 -172c89 0 154 74 154 174c0 104 -61 175 -149 175z" />
    <glyph glyph-name="e" unicode="e" horiz-adv-x="539" 
d="M504 206h-384c10 -89 70 -147 154 -147c57 0 111 31 138 79l67 -25c-38 -77 -117 -124 -205 -124c-137 0 -235 100 -235 240c0 142 97 243 232 243c134 0 234 -101 234 -236c0 -7 0 -19 -1 -30zM121 262h303c-3 36 -10 56 -26 79c-29 39 -76 63 -127 63s-97 -24 -124 -64
c-14 -22 -20 -41 -26 -78z" />
    <glyph glyph-name="f" unicode="f" horiz-adv-x="259" 
d="M160 394v-394h-76v394h-63v67h63v62c0 92 47 145 127 145c4 0 13 0 21 -1v-68c-57 -8 -72 -23 -72 -76v-62h72v-67h-72z" />
    <glyph glyph-name="g" unicode="g" horiz-adv-x="570" 
d="M417 382v79h76v-464c0 -77 -19 -129 -61 -169c-41 -40 -100 -61 -170 -61c-86 0 -154 28 -204 84l52 52c21 -22 31 -31 44 -40c26 -16 69 -27 108 -27c48 0 94 17 120 45c23 25 35 62 35 110v97c-45 -68 -98 -99 -170 -99c-122 0 -213 103 -213 240c0 145 89 243 219 243
c70 0 117 -26 164 -90zM267 402c-90 0 -153 -70 -153 -170c0 -99 64 -173 151 -173c45 0 92 23 120 60c18 23 30 67 30 110c0 62 -10 95 -40 126c-27 29 -69 47 -108 47z" />
    <glyph glyph-name="h" unicode="h" horiz-adv-x="508" 
d="M152 667v-270c42 52 84 75 139 75c40 0 82 -16 107 -42c25 -25 36 -61 36 -120v-310h-76v306c0 63 -31 98 -86 98c-35 0 -66 -14 -90 -41c-23 -26 -30 -49 -30 -93v-270h-76v667h76z" />
    <glyph glyph-name="i" unicode="i" horiz-adv-x="229" 
d="M152 461v-461h-76v461h76zM115 640c28 0 49 -22 49 -50c0 -27 -22 -48 -49 -48c-28 0 -49 21 -49 49s21 49 49 49z" />
    <glyph glyph-name="j" unicode="j" horiz-adv-x="229" 
d="M152 461v-509c0 -63 -11 -101 -39 -131c-28 -31 -69 -48 -116 -48h-20v72h11c53 1 88 43 88 107v509h76zM115 640c28 0 49 -22 49 -50c0 -27 -22 -48 -49 -48c-28 0 -49 21 -49 49s21 49 49 49z" />
    <glyph glyph-name="k" unicode="k" horiz-adv-x="444" 
d="M152 206v-206h-76v667h76v-408l184 202h96l-206 -225l205 -236h-95z" />
    <glyph glyph-name="l" unicode="l" horiz-adv-x="229" 
d="M152 0h-76v667h76v-667z" />
    <glyph glyph-name="m" unicode="m" horiz-adv-x="772" 
d="M76 461h76v-64c35 53 74 75 131 75c63 0 103 -27 124 -84c34 59 77 84 146 84c53 0 93 -17 117 -49c22 -29 28 -55 28 -128v-295h-76v277c0 56 -2 69 -13 88c-14 24 -44 39 -80 39c-67 0 -104 -45 -104 -127v-277h-76v276c0 45 -4 68 -15 88c-13 26 -41 40 -75 40
c-67 0 -107 -48 -107 -128v-276h-76v461z" />
    <glyph glyph-name="n" unicode="n" horiz-adv-x="509" 
d="M76 461h76v-65c40 54 80 76 137 76c42 0 80 -14 107 -38c29 -28 39 -60 39 -123v-311h-76v294c0 41 -5 63 -17 79c-13 19 -41 31 -72 31c-34 0 -65 -13 -88 -39c-22 -24 -30 -46 -30 -84v-281h-76v461z" />
    <glyph glyph-name="o" unicode="o" horiz-adv-x="548" 
d="M275 472c136 0 233 -101 233 -243c0 -135 -103 -240 -236 -240c-137 0 -233 100 -233 242c0 143 96 241 236 241zM275 402c-95 0 -158 -69 -158 -172c0 -102 63 -171 157 -171c91 0 156 71 156 171c0 103 -62 172 -155 172z" />
    <glyph glyph-name="p" unicode="p" horiz-adv-x="576" 
d="M76 461h76v-84c44 68 91 95 168 95c128 0 217 -98 217 -238c0 -145 -89 -245 -217 -245c-36 0 -69 8 -101 24c-28 14 -42 26 -67 59v-288h-76v677zM307 404c-92 0 -155 -73 -155 -181c0 -101 61 -168 152 -168s152 71 152 176c0 57 -14 99 -44 129c-26 27 -66 44 -105 44
z" />
    <glyph glyph-name="q" unicode="q" horiz-adv-x="573" 
d="M421 461h76v-677h-76v293c-44 -61 -95 -88 -167 -88c-68 0 -133 32 -171 84c-28 38 -44 96 -44 159c0 144 88 240 222 240c70 0 118 -27 160 -90v79zM270 404c-89 0 -151 -72 -151 -175c0 -102 61 -174 149 -174c89 0 151 70 151 172c0 59 -16 104 -47 135
c-26 26 -65 42 -102 42z" />
    <glyph glyph-name="r" unicode="r" horiz-adv-x="318" 
d="M76 461h76v-78c14 33 24 47 42 61c23 18 55 28 87 28h18v-77c-8 1 -15 1 -21 1c-41 0 -76 -19 -99 -53c-20 -29 -27 -56 -27 -109v-234h-76v461z" />
    <glyph glyph-name="s" unicode="s" horiz-adv-x="411" 
d="M365 335h-76v5c0 43 -35 70 -88 70c-50 0 -83 -26 -83 -65c0 -42 18 -56 103 -79c59 -16 90 -31 112 -53c23 -23 37 -56 37 -90c0 -80 -66 -134 -164 -134c-105 0 -164 49 -172 142h75c5 -52 39 -80 97 -80c52 0 86 27 86 68c0 40 -26 60 -105 80
c-100 27 -145 69 -145 139c0 80 65 134 162 134c98 0 157 -50 161 -137z" />
    <glyph glyph-name="t" unicode="t" horiz-adv-x="259" 
d="M157 394v-300c0 -22 8 -28 34 -28h36v-66h-71c-53 0 -75 21 -75 72v322h-64v67h64v145h76v-145h70v-67h-70z" />
    <glyph glyph-name="u" unicode="u" horiz-adv-x="485" 
d="M344 461h77v-295c0 -63 -12 -98 -46 -129s-82 -48 -133 -48c-52 0 -100 18 -133 49c-31 30 -46 72 -46 128v295h76v-293c0 -65 42 -111 103 -111c32 0 63 13 81 35c15 18 21 38 21 74v295z" />
    <glyph glyph-name="v" unicode="v" horiz-adv-x="435" 
d="M350 461h79l-174 -461h-80l-169 461h80l130 -352z" />
    <glyph glyph-name="w" unicode="w" horiz-adv-x="692" 
d="M608 461h78l-164 -461h-69l-106 350l-111 -350h-72l-158 461h78l118 -339l106 339h75l104 -339z" />
    <glyph glyph-name="x" unicode="x" horiz-adv-x="446" 
d="M223 167l-123 -167h-93l170 229l-173 232h96l123 -169l126 169h93l-174 -232l166 -229h-93z" />
    <glyph glyph-name="y" unicode="y" horiz-adv-x="438" 
d="M211 119l138 342h83l-275 -683h-83l96 236l-164 447h81z" />
    <glyph glyph-name="z" unicode="z" horiz-adv-x="401" 
d="M150 67h212v-67h-340l240 394h-214v67h339z" />
    <glyph glyph-name="ae" unicode="&#xe6;" horiz-adv-x="927" 
d="M803 139l65 -27c-43 -81 -112 -123 -204 -123c-73 0 -122 27 -159 88v-77h-75v85c-43 -65 -97 -96 -170 -96c-131 0 -221 98 -221 241c0 141 91 242 218 242c72 0 128 -28 173 -86v75h75v-75c40 60 89 86 163 86c70 0 127 -26 169 -78c36 -44 57 -103 57 -159
c0 -8 0 -16 -1 -29h-388c7 -45 15 -67 37 -92c28 -34 73 -55 118 -55c58 0 105 27 143 80zM505 262h309c-13 89 -70 142 -153 142c-51 0 -99 -23 -127 -62c-16 -22 -23 -41 -29 -80zM275 404c-60 0 -101 -23 -129 -72c-18 -30 -27 -67 -27 -104c0 -99 67 -173 155 -173
s156 77 156 177c0 102 -63 172 -155 172z" />
    <glyph glyph-name="oe" unicode="&#x153;" horiz-adv-x="923" 
d="M810 139l61 -26c-21 -38 -35 -55 -62 -75c-41 -31 -93 -49 -143 -49c-49 0 -101 17 -141 47c-26 18 -38 34 -57 74c-19 -40 -31 -55 -61 -77c-40 -29 -86 -44 -136 -44c-135 0 -232 100 -232 240c0 143 96 243 233 243c51 0 97 -14 136 -42c28 -20 41 -36 60 -73
c23 41 37 57 68 77c38 25 83 38 128 38c116 0 206 -78 225 -195c4 -20 4 -34 4 -72h-385c4 -42 12 -64 33 -89c30 -35 77 -57 123 -57c33 0 73 12 100 30c17 11 27 23 46 50zM507 261h311c-5 39 -11 57 -27 80c-28 40 -76 63 -129 63c-48 0 -89 -18 -119 -55
c-22 -26 -30 -46 -36 -88zM275 402c-92 0 -158 -71 -158 -170c0 -102 65 -173 159 -173c91 0 157 72 157 169c0 102 -66 174 -158 174z" />
    <glyph glyph-name="oslash" unicode="&#xf8;" horiz-adv-x="548" 
d="M119 43l-53 -56l-28 27l54 56c-38 52 -53 96 -53 160c0 142 96 242 232 242c58 0 108 -17 154 -52l60 63l27 -27l-60 -62c41 -54 56 -99 56 -162c0 -142 -99 -243 -238 -243c-57 0 -106 17 -151 54zM399 340l-227 -243c30 -25 64 -38 103 -38c91 0 156 72 156 173
c0 42 -8 70 -32 108zM146 125l226 242c-30 24 -61 35 -100 35c-93 0 -157 -70 -157 -172c0 -42 8 -70 31 -105z" />
    <glyph glyph-name="germandbls" unicode="&#xdf;" horiz-adv-x="495" 
d="M82 394h-53v67h53v57c0 96 62 153 167 153c100 0 167 -59 167 -149c0 -30 -11 -66 -28 -89c-13 -19 -28 -29 -62 -45c86 -21 131 -84 131 -182c0 -129 -72 -214 -180 -214c-33 0 -52 5 -78 19l20 62c26 -8 37 -10 53 -10c65 0 109 57 109 141c0 91 -44 136 -135 139v73
c30 4 43 8 57 19c22 16 36 47 36 78c0 52 -38 89 -89 89c-30 0 -59 -12 -75 -31c-12 -15 -17 -35 -17 -65v-506h-76v394z" />
    <glyph glyph-name="dotlessi" unicode="&#x131;" horiz-adv-x="229" 
d="M152 461v-461h-76v461h76z" />
    <glyph glyph-name="fi" unicode="&#xfb01;" horiz-adv-x="509" 
d="M160 394v-394h-76v394h-63v67h63v62c0 92 47 145 127 145c4 0 13 0 21 -1v-68c-57 -8 -72 -23 -72 -76v-62h72v-67h-72zM432 461v-461h-76v461h76zM394 640c28 0 49 -22 49 -50c0 -27 -22 -48 -49 -48c-28 0 -49 21 -49 49s21 49 49 49z" />
    <glyph glyph-name="fl" unicode="&#xfb02;" horiz-adv-x="509" 
d="M160 394v-394h-76v394h-63v67h63v62c0 92 47 145 127 145c4 0 13 0 21 -1v-68c-57 -8 -72 -23 -72 -76v-62h72v-67h-72zM432 0h-76v667h76v-667z" />
    <glyph glyph-name="ccedilla" unicode="&#xe7;" horiz-adv-x="457" 
d="M388 109l47 -52c-52 -47 -103 -68 -170 -68c-132 0 -226 100 -226 240c0 143 95 243 230 243c66 0 120 -22 168 -69l-49 -49c-35 32 -74 48 -117 48c-91 0 -154 -70 -154 -170c0 -102 63 -173 153 -173c45 0 81 15 118 50zM189 -213l-32 34c51 30 81 68 99 126l63 -24
c-31 -64 -67 -102 -130 -136z" />
    <glyph glyph-name="lslash" unicode="&#x142;" horiz-adv-x="233" 
d="M78 369v298h76v-256l68 51v-71l-68 -50v-341h-76v299l-67 -51v71z" />
    <glyph glyph-name="eth" unicode="&#xf0;" horiz-adv-x="549" 
d="M180 560l89 49c-24 22 -79 60 -101 69l24 31c33 -11 88 -44 124 -74l103 56l22 -38l-87 -47c98 -92 156 -224 156 -353c0 -159 -95 -264 -238 -264c-137 0 -233 100 -233 243c0 141 97 240 234 240c43 0 75 -9 120 -34c-16 46 -51 100 -91 140l-101 -57zM273 402
c-92 0 -156 -70 -156 -170c0 -104 63 -173 156 -173c94 0 158 71 158 174c0 100 -65 169 -158 169z" />
    <glyph glyph-name="thorn" unicode="&#xfe;" horiz-adv-x="574" 
d="M74 667h76v-290c44 68 91 95 168 95c128 0 217 -98 217 -238c0 -145 -89 -245 -217 -245c-36 0 -69 8 -101 24c-28 14 -42 26 -67 59v-288h-76v883zM305 404c-92 0 -155 -73 -155 -181c0 -101 61 -168 152 -168s152 71 152 176c0 57 -14 99 -44 129
c-26 27 -66 44 -105 44z" />
    <glyph glyph-name="one" unicode="1" 
d="M258 546l-147 -98v76l226 148v-672h-79v546z" />
    <glyph glyph-name="two" unicode="2" 
d="M182 73h235v-73h-374l232 332c67 97 82 127 82 167c0 58 -46 99 -111 99c-45 0 -82 -21 -97 -56c-8 -19 -11 -34 -12 -69h-75c4 127 71 197 190 197c109 0 185 -68 185 -165c0 -56 -20 -105 -76 -183z" />
    <glyph glyph-name="three" unicode="3" 
d="M305 585h-233v72h378l-196 -249c116 0 198 -83 198 -201c0 -125 -94 -218 -221 -218c-105 0 -180 59 -203 160l72 13c18 -64 65 -100 127 -100c81 0 145 61 145 139c0 80 -60 136 -147 136c-31 0 -51 -6 -80 -23l-33 29z" />
    <glyph glyph-name="four" unicode="4" 
d="M306 150h-267v62l344 464v-454h78v-72h-78v-150h-77v150zM306 222v255l-187 -255h187z" />
    <glyph glyph-name="five" unicode="5" 
d="M370 667v-76h-215v-179c34 13 65 19 98 19c118 0 205 -92 205 -217c0 -128 -94 -221 -225 -221c-94 0 -165 49 -199 137l73 27c15 -29 22 -41 33 -51c21 -21 58 -34 95 -34c80 0 141 62 141 144c0 85 -60 142 -148 142c-52 0 -104 -24 -148 -68v377h290z" />
    <glyph glyph-name="six" unicode="6" 
d="M372 657l-171 -267c28 10 40 13 65 13c111 0 197 -87 197 -200c0 -118 -97 -215 -215 -215c-119 0 -211 94 -211 215c0 49 13 86 51 147l191 307h93zM252 335c-76 0 -136 -58 -136 -132c0 -78 59 -140 134 -140s135 61 135 137c0 75 -59 135 -133 135z" />
    <glyph glyph-name="seven" unicode="7" 
d="M340 583h-256v74h370l-264 -657h-86z" />
    <glyph glyph-name="eight" unicode="8" 
d="M330 362c84 -25 127 -84 127 -172c0 -118 -87 -202 -209 -202c-121 0 -206 81 -206 195c0 53 18 101 50 134c21 22 38 32 78 45c-35 12 -50 22 -68 44c-22 27 -34 61 -34 98c0 95 78 165 184 165c105 0 181 -69 181 -164c0 -38 -13 -74 -37 -102c-18 -20 -32 -29 -66 -41
zM252 599c-64 0 -108 -40 -108 -96c0 -57 47 -102 106 -102c57 0 108 47 108 101c0 52 -49 97 -106 97zM251 320c-72 0 -130 -57 -130 -129c0 -71 57 -129 128 -129s128 58 128 129c0 70 -57 129 -126 129z" />
    <glyph glyph-name="nine" unicode="9" 
d="M132 0l168 267c-28 -10 -41 -13 -64 -13c-112 0 -199 88 -199 202c0 119 95 213 216 213c120 0 210 -91 210 -210c0 -51 -13 -90 -46 -145l-192 -314h-93zM253 595c-76 0 -137 -60 -137 -136c0 -75 58 -135 133 -135c77 0 135 58 135 134c0 77 -58 137 -131 137z" />
    <glyph glyph-name="zero" unicode="0" 
d="M448 466v-265c0 -75 -14 -121 -47 -156c-35 -37 -88 -56 -151 -56c-65 0 -119 20 -154 58c-35 37 -44 75 -44 176v220c0 87 10 128 40 164c33 40 88 62 156 62c61 0 111 -17 148 -50c38 -35 52 -75 52 -153zM131 441v-223c0 -77 3 -91 25 -116c21 -24 57 -39 95 -39
c41 0 79 17 98 44c15 22 21 50 21 99v255c0 52 -9 78 -34 102c-22 20 -52 31 -85 31c-43 0 -80 -17 -99 -48c-17 -24 -21 -47 -21 -105z" />
    <glyph glyph-name="sterling" unicode="&#xa3;" 
d="M221 362h148v-49h-114c29 -35 40 -60 40 -92c0 -36 -16 -68 -55 -110c18 -6 20 -6 71 -30c29 -13 41 -17 57 -17c29 0 45 13 58 48l39 -29c-6 -24 -12 -37 -23 -51c-20 -24 -55 -41 -85 -41c-24 0 -49 8 -100 34c-56 28 -66 32 -86 32c-31 0 -50 -21 -50 -57h-70
c2 73 48 124 112 124h6c41 41 51 59 51 89c0 36 -14 61 -54 100h-112v49h70c-39 49 -51 77 -51 125c0 103 83 181 193 181c63 0 121 -28 154 -74c19 -25 26 -49 27 -94h-74c1 5 1 9 1 11c0 48 -52 91 -110 91c-61 0 -111 -49 -111 -109c0 -40 17 -73 68 -131z" />
    <glyph glyph-name="dollar" unicode="$" 
d="M263 583v-216c60 -23 77 -31 104 -48c47 -29 77 -84 77 -142c0 -59 -30 -113 -80 -145c-30 -19 -54 -26 -101 -32v-93h-41v93c-43 3 -67 11 -98 32c-49 32 -74 76 -74 131c0 2 0 9 1 15h69c-1 -2 -1 -4 -1 -6c-4 -51 40 -96 103 -104v237c-51 19 -71 28 -98 45
c-44 29 -71 78 -71 133c0 57 29 110 76 141c26 16 50 24 93 29v72h41v-72c103 -13 167 -76 168 -166h-71c-5 54 -38 87 -97 96zM222 383v200c-63 -8 -97 -43 -97 -96c0 -50 29 -81 97 -104zM263 288v-220c64 5 106 46 106 105c0 53 -33 88 -106 115z" />
    <glyph glyph-name="cent" unicode="&#xa2;" 
d="M297 501v-345c36 1 70 17 100 48l46 -50c-43 -42 -81 -59 -146 -66v-84h-41v84c-133 22 -204 104 -204 236c0 87 35 163 94 206c31 22 58 32 110 39v79h41v-79c57 -3 112 -29 148 -71l-48 -47c-31 31 -64 47 -100 50zM256 156v345c-85 -17 -130 -77 -130 -172
c0 -94 46 -156 130 -173z" />
    <glyph glyph-name="florin" unicode="&#x192;" 
d="M233 412h-63l8 49h63l22 121c16 91 72 144 154 144c5 0 11 0 19 -1l-12 -68c-56 -6 -74 -22 -85 -75l-21 -121h71l-8 -49h-72l-65 -369c-17 -111 -82 -173 -183 -176l13 71c48 4 81 40 93 104z" />
    <glyph glyph-name="yen" unicode="&#xa5;" 
d="M141 428l-117 229h88l140 -288l137 288h87l-116 -229h96v-51h-121l-44 -88v-7h145v-51h-145v-231h-79v231h-148v51h148v7l-45 88h-123v51h97z" />
    <glyph glyph-name="onesuperior" unicode="&#xb9;" horiz-adv-x="328" 
d="M166 581l-92 -57v53l149 92v-406h-57v318z" />
    <glyph glyph-name="twosuperior" unicode="&#xb2;" horiz-adv-x="328" 
d="M129 313h142v-51h-244l148 202c42 57 51 74 51 96c0 32 -27 55 -66 55c-44 0 -62 -22 -63 -74h-55c3 81 45 124 122 124c70 0 119 -42 119 -101c0 -34 -13 -65 -48 -110z" />
    <glyph glyph-name="threesuperior" unicode="&#xb3;" horiz-adv-x="328" 
d="M189 607h-140v50h248l-123 -147c69 -2 120 -54 120 -122c0 -76 -60 -132 -141 -132c-70 0 -117 36 -132 101l52 9c11 -38 38 -59 77 -59c49 0 87 34 87 78c0 45 -36 76 -88 76c-20 0 -32 -3 -51 -14l-25 21z" />
    <glyph glyph-name="period" unicode="." horiz-adv-x="231" 
d="M115 96c30 0 52 -22 52 -53c0 -29 -23 -51 -52 -51c-30 0 -52 22 -52 52s22 52 52 52z" />
    <glyph glyph-name="colon" unicode=":" horiz-adv-x="231" 
d="M115 96c30 0 52 -22 52 -53c0 -29 -23 -51 -52 -51c-30 0 -52 22 -52 52s22 52 52 52zM115 384c30 0 52 -22 52 -53c0 -29 -23 -51 -52 -51c-30 0 -52 22 -52 52s22 52 52 52z" />
    <glyph glyph-name="periodcentered" unicode="&#xb7;" horiz-adv-x="231" 
d="M115 295c30 0 52 -22 52 -53c0 -29 -23 -51 -52 -51c-30 0 -52 22 -52 52s22 52 52 52z" />
    <glyph glyph-name="middot" unicode="&#xb7;" horiz-adv-x="231" 
d="M115 295c30 0 52 -22 52 -53c0 -29 -23 -51 -52 -51c-30 0 -52 22 -52 52s22 52 52 52z" />
    <glyph glyph-name="ellipsis" unicode="&#x2026;" horiz-adv-x="692" 
d="M115 96c30 0 52 -22 52 -53c0 -29 -23 -51 -52 -51c-30 0 -52 22 -52 52s22 52 52 52zM346 96c30 0 52 -22 52 -53c0 -29 -23 -51 -52 -51c-30 0 -52 22 -52 52s22 52 52 52zM576 96c30 0 52 -22 52 -53c0 -29 -23 -51 -52 -51c-30 0 -52 22 -52 52s22 52 52 52z" />
    <glyph glyph-name="comma" unicode="," horiz-adv-x="231" 
d="M169 78l-101 -237l-55 17l84 243z" />
    <glyph glyph-name="semicolon" unicode=";" horiz-adv-x="231" 
d="M169 78l-101 -237l-55 17l84 243zM121 379c30 0 52 -22 52 -53c0 -29 -23 -51 -52 -51c-30 0 -52 22 -52 52s22 52 52 52z" />
    <glyph glyph-name="quoteleft" unicode="&#x2018;" horiz-adv-x="221" 
d="M39 477l91 203l56 -19l-81 -209z" />
    <glyph glyph-name="quotedblright" unicode="&#x201d;" horiz-adv-x="403" 
d="M189 656l-101 -235l-55 20l86 239zM364 656l-101 -235l-56 20l87 239z" />
    <glyph glyph-name="quotedblleft" unicode="&#x201c;" horiz-adv-x="403" 
d="M214 446l100 234l56 -20l-87 -238zM39 446l100 234l56 -20l-87 -239z" />
    <glyph glyph-name="quotedblbase" unicode="&#x201e;" horiz-adv-x="403" 
d="M189 77l-101 -235l-55 20l86 238zM364 77l-101 -235l-56 20l87 239z" />
    <glyph glyph-name="exclam" unicode="!" horiz-adv-x="257" 
d="M168 667v-506h-77v506h77zM129 96c30 0 52 -22 52 -53c0 -29 -23 -51 -52 -51c-30 0 -52 22 -52 52s22 52 52 52z" />
    <glyph glyph-name="exclamdown" unicode="&#xa1;" horiz-adv-x="257" 
d="M91 -203v505h77v-505h-77zM129 471c30 0 52 -22 52 -52s-22 -52 -52 -52s-52 22 -52 53c0 29 23 51 52 51z" />
    <glyph glyph-name="question" unicode="?" horiz-adv-x="426" 
d="M220 165h-75c-1 140 5 156 85 219c56 43 72 69 72 115c0 61 -42 105 -99 105c-55 0 -96 -39 -96 -91v-13h-73c1 107 65 174 168 174s178 -73 178 -173c0 -66 -28 -113 -100 -167c-54 -41 -61 -55 -61 -122c0 -3 0 -27 1 -47zM185 96c30 0 52 -22 52 -53
c0 -29 -23 -51 -52 -51c-30 0 -52 22 -52 52s22 52 52 52z" />
    <glyph glyph-name="questiondown" unicode="&#xbf;" horiz-adv-x="426" 
d="M207 298h74c1 -140 -5 -156 -85 -219c-55 -42 -72 -69 -72 -115c0 -60 42 -105 99 -105c55 0 96 39 96 92v13h73c-1 -109 -65 -175 -168 -175s-178 73 -178 174c0 66 28 113 100 167c54 41 61 54 61 122v46zM242 471c30 0 52 -22 52 -52s-22 -52 -52 -52s-52 22 -52 53
c0 29 23 51 52 51z" />
    <glyph glyph-name="guillemotright" unicode="&#xbb;" horiz-adv-x="415" 
d="M313 247l-101 164h60l100 -164l-100 -171h-60zM151 247l-101 164h60l101 -164l-101 -171h-60z" />
    <glyph glyph-name="guillemotleft" unicode="&#xab;" horiz-adv-x="415" 
d="M103 235l101 -164h-60l-101 164l101 171h60zM264 235l101 -164h-60l-100 164l100 171h60z" />
    <glyph glyph-name="guilsinglright" unicode="&#x203a;" horiz-adv-x="254" 
d="M151 242l-101 164h60l101 -164l-101 -171h-60z" />
    <glyph glyph-name="guilsinglleft" unicode="&#x2039;" horiz-adv-x="254" 
d="M102 235l102 -164h-60l-101 164l101 171h60z" />
    <glyph glyph-name="slash" unicode="/" horiz-adv-x="395" 
d="M357 667l-335 -883h-65l335 883h65z" />
    <glyph glyph-name="hyphen" unicode="-" horiz-adv-x="207" 
d="M207 277v-69h-207v69h207z" />
    <glyph glyph-name="sfthyphen" unicode="&#xad;" horiz-adv-x="207" 
d="M207 277v-69h-207v69h207z" />
    <glyph glyph-name="endash" unicode="&#x2013;" 
d="M430 274v-67h-359v67h359z" />
    <glyph glyph-name="emdash" unicode="&#x2014;" horiz-adv-x="622" 
d="M622 274v-64h-622v64h622z" />
    <glyph glyph-name="parenleft" unicode="(" horiz-adv-x="301" 
d="M265 -186l-50 -48c-118 145 -172 286 -172 454c0 172 63 342 174 467l48 -50c-100 -125 -151 -264 -151 -414c0 -146 54 -292 151 -409z" />
    <glyph glyph-name="parenright" unicode=")" horiz-adv-x="301" 
d="M35 639l50 48c119 -146 172 -286 172 -454c0 -173 -63 -341 -174 -467l-48 50c101 125 151 264 151 414c0 147 -53 291 -151 409z" />
    <glyph glyph-name="bracketleft" unicode="[" horiz-adv-x="300" 
d="M77 667h161v-50h-94v-783h94v-50h-161v883z" />
    <glyph glyph-name="bracketright" unicode="]" horiz-adv-x="300" 
d="M223 667v-883h-161v50h94v783h-94v50h161z" />
    <glyph glyph-name="ampersand" unicode="&#x26;" horiz-adv-x="597" 
d="M468 138l105 -138h-84l-67 91c-79 -78 -127 -104 -191 -104c-105 0 -188 83 -188 190c0 82 37 130 159 205c-49 68 -60 91 -60 130c0 71 60 125 137 125c76 0 133 -52 133 -122c0 -34 -16 -72 -43 -98c-16 -16 -28 -25 -67 -51l125 -172l95 98l51 -48zM263 419
c60 38 76 58 76 95c0 35 -24 58 -59 58c-37 0 -63 -24 -63 -60c0 -29 4 -38 46 -93zM377 147l-136 180c-46 -31 -57 -39 -76 -56c-29 -25 -46 -60 -46 -95c0 -64 52 -118 115 -118c48 0 76 18 143 89z" />
    <glyph glyph-name="section" unicode="&#xa7;" 
d="M420 534h-71c-5 51 -42 84 -93 84s-91 -37 -91 -84c0 -23 10 -45 28 -61c20 -20 20 -20 100 -47c101 -34 151 -95 151 -183c0 -73 -37 -127 -108 -158c57 -40 78 -74 78 -129c0 -94 -72 -161 -173 -161c-106 0 -183 73 -183 172v6h71c3 -71 47 -116 114 -116
c58 0 100 41 100 96c0 27 -10 48 -33 67c-23 20 -33 24 -101 42c-102 28 -154 87 -154 176c0 85 40 143 119 170c-51 26 -79 72 -79 128c0 83 67 145 156 145c61 0 116 -26 145 -68c15 -23 22 -44 24 -79zM250 363c-68 0 -125 -54 -125 -120c0 -71 51 -121 124 -121
s124 50 124 122c0 63 -57 119 -123 119z" />
    <glyph glyph-name="dagger" unicode="&#x2020;" 
d="M217 667h67v-177h147v-60h-147v-641h-67v641h-147v60h147v177z" />
    <glyph glyph-name="daggerdbl" unicode="&#x2021;" 
d="M217 667h67v-179h147v-60h-147v-398h147v-60h-147v-181h-67v181h-147v60h147v398h-147v60h147v179z" />
    <glyph glyph-name="asterisk" unicode="*" horiz-adv-x="423" 
d="M209 472l-70 -95l-40 30l71 94l-112 36l15 46l112 -33v115h48v-115l114 36l16 -47l-117 -38l72 -94l-37 -30z" />
    <glyph glyph-name="quotesingle" unicode="'" horiz-adv-x="186" 
d="M126 400h-65l-13 267h91z" />
    <glyph glyph-name="quotedbl" unicode="&#x22;" horiz-adv-x="337" 
d="M123 400h-62l-13 267h89zM276 400h-62l-13 267h88z" />
    <glyph glyph-name="at" unicode="@" horiz-adv-x="777" 
d="M662 182h43c-23 -51 -47 -82 -83 -111c-61 -49 -145 -79 -224 -79c-178 0 -329 154 -329 336c0 188 152 341 339 341c166 0 303 -125 303 -278c0 -75 -28 -142 -81 -194c-43 -41 -98 -67 -145 -67c-40 0 -67 19 -72 52c-42 -37 -74 -52 -113 -52c-64 0 -109 53 -109 127
c0 144 103 274 216 274c43 0 66 -13 90 -50l13 36h80l-95 -269c-9 -26 -17 -55 -17 -65c0 -12 9 -20 23 -20c18 0 43 8 64 22c64 41 105 121 105 204c0 132 -119 240 -265 240c-165 0 -297 -134 -297 -300c0 -165 131 -297 294 -297c76 0 154 31 206 81c15 16 26 30 54 69z
M421 270l53 148c2 6 3 13 3 21c0 36 -20 61 -51 61s-64 -27 -95 -77c-37 -61 -66 -152 -66 -209c0 -31 19 -52 49 -52c19 0 39 9 52 23c19 20 47 63 55 85z" />
    <glyph glyph-name="numbersign" unicode="#" 
d="M440 289v-50h-103l-30 -212h-50l29 212h-88l-30 -212h-52l30 212h-107v50h114l14 94h-104v51h111l28 196h51l-27 -196h88l28 196h50l-27 -196h96v-51h-103l-13 -94h95zM309 385h-92l-14 -98h92z" />
    <glyph glyph-name="degree" unicode="&#xb0;" 
d="M252 664c78 0 141 -64 141 -144c0 -77 -64 -141 -142 -141c-79 0 -143 64 -143 143s64 142 144 142zM249 626c-56 0 -102 -47 -102 -104c0 -58 47 -105 104 -105c56 0 103 47 103 102c0 60 -46 107 -105 107z" />
    <glyph glyph-name="plus" unicode="+" 
d="M22 364h205v193h46v-193h205v-44h-205v-193h-46v193h-205v44z" />
    <glyph glyph-name="minus" unicode="&#x2212;" 
d="M22 364h456v-44h-456v44z" />
    <glyph glyph-name="multiply" unicode="&#xd7;" 
d="M92 531l157 -158l158 159l32 -32l-158 -158l158 -158l-31 -31l-158 158l-158 -159l-32 32l159 158l-158 158z" />
    <glyph glyph-name="divide" unicode="&#xf7;" 
d="M22 364h456v-44h-456v44zM251 565c21 0 39 -18 39 -40s-18 -40 -40 -40s-40 18 -40 40s18 40 41 40zM250 198c22 0 40 -18 40 -40s-18 -40 -40 -40s-40 18 -40 40s18 40 40 40z" />
    <glyph glyph-name="equal" unicode="=" 
d="M22 434h456v-43h-456v43zM22 293h456v-43h-456v43z" />
    <glyph glyph-name="trademark" unicode="&#x2122;" horiz-adv-x="828" 
d="M177 618v-351h-60v351h-105v49h270v-49h-105zM412 542v-275h-60v400h58l151 -290l151 290h58v-400h-60v275l-149 -284z" />
    <glyph glyph-name="paragraph" unicode="&#xb6;" 
d="M233 -105v413h-16c-106 0 -180 73 -180 178c0 66 33 126 85 156c29 16 71 25 119 25h180v-772h-53v735h-81v-735h-54z" />
    <glyph glyph-name="currency" unicode="&#xa4;" horiz-adv-x="689" 
d="M66 109l92 93c-31 43 -47 91 -47 140s12 84 48 139l-95 94l45 45l95 -95c58 38 90 49 141 49c50 0 81 -11 138 -49l96 94l44 -44l-94 -94c35 -49 49 -90 49 -141c0 -49 -11 -81 -47 -137l94 -94l-45 -45l-93 94c-45 -34 -89 -49 -139 -49c-47 0 -90 14 -145 49l-93 -94z
M347 504c-91 0 -162 -71 -162 -162c0 -89 72 -161 159 -161c89 0 160 72 160 161s-71 162 -157 162z" />
    <glyph glyph-name="quotesinglbase" unicode="&#x201a;" horiz-adv-x="223" 
d="M185 76l-93 -209l-56 20l82 214z" />
    <glyph glyph-name="quoteright" unicode="&#x2019;" horiz-adv-x="221" 
d="M183 656l-92 -204l-55 19l81 209z" />
    <glyph glyph-name="braceleft" unicode="{" 
d="M273 514v-155c0 -62 -14 -90 -55 -113c41 -22 55 -53 55 -116v-151c0 -74 20 -94 95 -96v-70c-6 1 -11 1 -14 1l-27 1c-69 1 -100 15 -120 54c-11 21 -16 51 -16 93v159c0 58 -15 83 -57 95v64c41 11 57 37 57 91v174c0 49 10 80 32 102c23 24 58 33 130 33h15v-74
c-75 -2 -95 -22 -95 -92z" />
    <glyph glyph-name="braceright" unicode="}" 
d="M227 -22v156c0 63 14 91 55 114c-41 22 -55 52 -55 115v151c0 74 -20 95 -95 96v70h14c78 0 109 -8 133 -35c21 -24 30 -57 30 -114v-158c0 -58 15 -83 57 -95v-64c-41 -12 -57 -37 -57 -92v-173c0 -49 -10 -81 -32 -103c-24 -25 -57 -33 -130 -33h-15v74
c74 2 95 22 95 91z" />
    <glyph glyph-name="ordfeminine" unicode="&#xaa;" horiz-adv-x="375" 
d="M268 508v37h55v-278h-55v44c-25 -33 -60 -50 -100 -50c-80 0 -138 60 -138 144c0 85 59 146 140 146c40 0 74 -15 98 -43zM177 504c-53 0 -89 -40 -89 -100c0 -55 38 -97 88 -97c51 0 93 46 93 102s-37 95 -92 95z" />
    <glyph glyph-name="ordmasculine" unicode="&#xba;" horiz-adv-x="357" 
d="M179 552c87 0 149 -61 149 -147c0 -81 -66 -145 -150 -145c-88 0 -149 61 -149 146c0 87 61 146 150 146zM179 504c-56 0 -94 -39 -94 -98s37 -98 94 -98c54 0 93 41 93 98c0 59 -37 98 -93 98z" />
    <glyph glyph-name="plusminus" unicode="&#xb1;" 
d="M22 375h205v193h46v-193h205v-44h-205v-189h-46v189h-205v44zM22 97h456v-44h-456v44z" />
    <glyph glyph-name="onehalf" unicode="&#xbd;" horiz-adv-x="780" 
d="M165 581l-91 -57v53l148 92v-406h-57v318zM635 648l-457 -661l-33 23l457 660zM582 51h142v-51h-244l148 201c43 57 51 73 51 96c0 32 -27 54 -65 54c-45 0 -63 -21 -64 -73h-55c3 80 45 123 122 123c70 0 119 -42 119 -101c0 -33 -13 -64 -48 -109z" />
    <glyph glyph-name="onequarter" unicode="&#xbc;" horiz-adv-x="780" 
d="M165 581l-91 -57v53l148 92v-406h-57v318zM635 648l-457 -661l-33 23l457 660zM646 88h-165v41l221 282v-273h49v-50h-49v-88h-56v88zM647 137v138l-106 -138h106z" />
    <glyph glyph-name="threequarters" unicode="&#xbe;" horiz-adv-x="780" 
d="M189 607h-140v50h248l-123 -147c69 -2 120 -54 120 -122c0 -76 -60 -132 -141 -132c-70 0 -117 36 -132 101l52 9c11 -38 38 -59 77 -59c49 0 87 34 87 78c0 45 -36 76 -88 76c-20 0 -32 -3 -51 -14l-25 21zM635 648l-458 -661l-33 23l458 660zM646 88h-166v41l222 282
v-273h48v-50h-48v-88h-56v88zM647 137v138l-106 -138h106z" />
    <glyph glyph-name="fraction" unicode="&#x2044;" horiz-adv-x="124" 
d="M307 648l-457 -661l-33 23l457 660z" />
    <glyph glyph-name="percent" unicode="%" horiz-adv-x="611" 
d="M255 548v-108c0 -73 -36 -111 -104 -111c-34 0 -63 11 -82 32c-17 19 -21 35 -21 84v102c0 49 6 73 25 93c18 19 47 30 79 30c30 0 56 -10 76 -27c22 -22 27 -37 27 -95zM97 546v-92c0 -40 1 -46 9 -58c9 -13 26 -21 46 -21c21 0 39 9 47 24c6 11 8 22 8 52v103
c0 47 -17 69 -54 69c-20 0 -37 -7 -45 -18c-10 -12 -11 -20 -11 -59zM563 215v-108c0 -72 -36 -110 -104 -110c-34 0 -63 11 -82 32c-17 19 -21 34 -21 83v102c0 50 6 73 25 93c18 19 47 30 79 30c30 0 57 -10 76 -27c23 -22 27 -37 27 -95zM405 213v-92c0 -40 1 -45 9 -57
c9 -13 27 -21 46 -21c21 0 39 9 47 24c6 11 8 21 8 51v103c0 48 -17 69 -54 69c-20 0 -37 -7 -45 -18c-10 -12 -11 -20 -11 -59zM551 653l-458 -661l-32 23l457 660z" />
    <glyph glyph-name="perthousand" unicode="&#x2030;" horiz-adv-x="897" 
d="M255 548v-108c0 -73 -36 -111 -104 -111c-34 0 -63 11 -82 32c-17 19 -21 35 -21 84v102c0 49 6 73 25 93c18 19 47 30 79 30c30 0 56 -10 76 -27c22 -22 27 -37 27 -95zM97 546v-92c0 -40 1 -46 9 -58c9 -13 26 -21 46 -21c21 0 39 9 47 24c6 11 8 22 8 52v103
c0 47 -17 69 -54 69c-20 0 -37 -7 -45 -18c-10 -12 -11 -20 -11 -59zM570 215v-108c0 -72 -36 -110 -104 -110c-34 0 -63 11 -82 32c-17 19 -21 34 -21 83v102c0 50 6 73 25 93c18 19 47 30 79 30c30 0 57 -10 76 -27c23 -22 27 -37 27 -95zM412 213v-92c0 -40 1 -45 9 -57
c9 -13 27 -21 46 -21c21 0 39 9 47 24c6 11 8 21 8 51v103c0 48 -17 69 -54 69c-20 0 -37 -7 -45 -18c-10 -12 -11 -20 -11 -59zM554 653l-457 -661l-33 23l457 660zM849 215v-108c0 -72 -36 -110 -104 -110c-34 0 -63 11 -82 32c-17 19 -21 34 -21 83v102c0 50 6 73 25 93
c18 19 47 30 79 30c30 0 57 -10 76 -27c23 -22 27 -37 27 -95zM691 213v-92c0 -41 1 -45 9 -57c9 -13 27 -21 46 -21c21 0 39 9 47 24c6 11 8 21 8 51v103c0 48 -17 69 -54 69c-20 0 -37 -7 -45 -18c-10 -12 -11 -20 -11 -59z" />
    <glyph glyph-name="backslash" unicode="\" horiz-adv-x="395" 
d="M37 667h65l335 -883h-65z" />
    <glyph glyph-name="dieresis" unicode="&#xa8;" 
d="M150 640c27 0 47 -20 47 -48c0 -26 -20 -46 -47 -46s-47 20 -47 47s20 47 47 47zM350 640c27 0 47 -20 47 -48c0 -26 -20 -46 -47 -46s-47 20 -47 47s20 47 47 47z" />
    <glyph glyph-name="dotaccent" unicode="&#x2d9;" 
d="M250 640c27 0 47 -20 47 -48c0 -26 -20 -46 -47 -46s-47 20 -47 47s20 47 47 47z" />
    <glyph glyph-name="ring" unicode="&#x2da;" 
d="M251 677c45 0 79 -35 79 -81c0 -43 -36 -78 -80 -78c-45 0 -80 35 -80 79c0 45 35 80 81 80zM250 645c-27 0 -48 -20 -48 -48c0 -27 21 -47 48 -47s48 21 48 47c0 27 -20 48 -48 48z" />
    <glyph glyph-name="acute" unicode="&#xb4;" 
d="M294 660h89l-117 -132h-55z" />
    <glyph glyph-name="grave" unicode="`" 
d="M207 660l82 -132h-54l-118 132h90z" />
    <glyph glyph-name="circumflex" unicode="&#x2c6;" 
d="M250 612l-73 -84h-65l104 133h72l101 -133h-66z" />
    <glyph glyph-name="caron" unicode="&#x2c7;" 
d="M251 577l73 84h65l-104 -133h-72l-101 133h66z" />
    <glyph glyph-name="breve" unicode="&#x2d8;" 
d="M101 655h62c19 -37 43 -51 87 -51c43 0 67 14 86 51h62c-17 -65 -71 -103 -148 -103s-132 38 -149 103z" />
    <glyph glyph-name="tilde" unicode="&#x2dc;" 
d="M362 640l50 -18c-30 -60 -57 -84 -94 -84c-21 0 -38 7 -86 36c-16 10 -24 13 -33 13c-20 0 -34 -12 -47 -41l-51 23c28 54 57 78 95 78c25 0 47 -9 93 -39c12 -8 17 -10 26 -10c20 0 35 14 47 42z" />
    <glyph glyph-name="hungarumlaut" unicode="&#x2dd;" 
d="M210 659h83l-98 -131h-50zM357 659h83l-98 -131h-50z" />
    <glyph glyph-name="cedilla" unicode="&#xb8;" 
d="M201 -213l-32 34c51 30 81 67 99 126l63 -24c-31 -64 -67 -102 -130 -136z" />
    <glyph glyph-name="ogonek" unicode="&#x2db;" 
d="M237 0h53c-51 -42 -62 -56 -62 -84c0 -26 22 -43 55 -43c10 0 19 1 36 6l9 -46c-22 -8 -34 -10 -54 -10c-60 0 -102 33 -102 79c0 37 22 71 65 98z" />
    <glyph glyph-name="macron" unicode="&#xaf;" 
d="M386 624v-62h-272v62h272z" />
    <glyph glyph-name="copyright" unicode="&#xa9;" horiz-adv-x="782" 
d="M395 679c186 0 340 -157 340 -346c0 -190 -154 -345 -344 -345s-345 155 -345 345c0 193 154 346 349 346zM395 639c-171 0 -305 -135 -305 -306c0 -168 135 -305 301 -305c165 0 300 137 300 305c0 167 -134 306 -296 306zM532 296h43c-8 -100 -80 -166 -182 -166
c-114 0 -191 82 -191 204c0 121 79 205 194 205c92 0 165 -58 172 -138h-42c-13 57 -62 92 -130 92c-84 0 -140 -63 -140 -159s55 -158 139 -158c75 0 127 45 137 120z" />
    <glyph glyph-name="registered" unicode="&#xae;" horiz-adv-x="782" 
d="M395 679c186 0 340 -157 340 -346c0 -190 -154 -345 -344 -345s-345 155 -345 345c0 193 154 346 349 346zM395 639c-171 0 -305 -135 -305 -306c0 -168 135 -305 301 -305c165 0 300 137 300 305c0 167 -134 306 -296 306zM243 527h165c90 0 139 -38 139 -108
c0 -45 -24 -78 -71 -95c51 -17 64 -42 66 -125c2 -41 4 -52 10 -64h-51c-6 10 -8 22 -11 73c-3 52 -9 70 -27 82c-16 11 -40 16 -75 16h-92v-171h-53v392zM296 491v-151h95c69 0 103 25 103 76s-30 75 -95 75h-103z" />
    <glyph glyph-name="space" unicode=" " horiz-adv-x="300" 
 />
    <glyph glyph-name="nbspace" unicode="&#xa0;" horiz-adv-x="300" 
 />
    <glyph glyph-name="bullet" unicode="&#x2022;" horiz-adv-x="667" 
d="M337 477c74 0 136 -63 136 -138c0 -77 -62 -139 -138 -139s-139 62 -139 138c0 78 62 139 141 139z" />
    <glyph glyph-name="less" unicode="&#x3c;" 
d="M466 577v-83l-344 -159l344 -159v-83l-433 207v71z" />
    <glyph glyph-name="greater" unicode="&#x3e;" 
d="M34 93v83l344 159l-344 160v82l433 -206v-72z" />
    <glyph glyph-name="logicalnot" unicode="&#xac;" 
d="M385 0v205h-352v73h433v-278h-81z" />
    <glyph glyph-name="asciicircum" unicode="^" 
d="M108 373h-78l173 295h94l172 -295h-78l-142 239z" />
    <glyph glyph-name="bar" unicode="|" 
d="M208 667h83v-834h-83v834z" />
    <glyph glyph-name="brokenbar" unicode="&#xa6;" 
d="M208 667h83v-336h-83v336zM208 153h83v-320h-83v320z" />
    <glyph glyph-name="underscore" unicode="_" 
d="M0 -70h500v-54h-500v54z" />
    <glyph glyph-name="asciitilde" unicode="~" horiz-adv-x="667" 
d="M138 579l-44 35c35 75 81 113 137 113c27 0 58 -10 115 -39c55 -27 70 -32 92 -32c36 0 62 21 91 74l44 -35c-34 -76 -81 -113 -144 -113c-26 0 -43 6 -120 44c-37 18 -62 26 -82 26c-34 0 -60 -21 -89 -73z" />
    <glyph glyph-name="mu" unicode="&#x3bc;" 
d="M50 -166v646h72v-271c0 -68 7 -93 34 -122c25 -25 56 -39 89 -39c80 0 134 70 134 171v261h71v-480h-71v91c-28 -71 -71 -104 -135 -104c-54 0 -90 22 -122 74v-227h-72z" />
  </font>
</defs>
</svg>
